<svg width="1440" height="7806" viewBox="0 0 1440 7806" fill="none" xmlns="http://www.w3.org/2000/svg">
<g clip-path="url(#clip0_1378_467)">
<rect width="1440" height="7806" fill="black"/>
<g filter="url(#filter0_f_1378_467)">
<path fill-rule="evenodd" clip-rule="evenodd" d="M365.927 4141.41C486.874 4217.78 408.655 4440.38 515.04 4535.99C588.987 4602.45 727.41 4480.98 808.207 4538.91C880.961 4591.09 908 4710.97 875.228 4794.28C840.314 4883.04 681.923 4867.39 644.493 4955.12C598.35 5063.28 761.14 5243.69 658.795 5301.58C555.928 5359.76 462.952 5180.15 365.927 5112.68C321.039 5081.46 295.155 5017.32 240.856 5010.92C127.597 4997.58 -12.005 5139.96 -92.0344 5058.7C-161.083 4988.6 -11.5589 4884.61 27.4764 4794.28C50.4798 4741.05 88.9583 4693.42 90.8682 4635.47C95.3171 4500.46 -19.9554 4357.71 45.752 4239.69C101.001 4140.45 269.892 4080.77 365.927 4141.41Z" fill="url(#paint0_linear_1378_467)" fill-opacity="0.8"/>
</g>
<g filter="url(#filter1_f_1378_467)">
<path fill-rule="evenodd" clip-rule="evenodd" d="M1123.55 5022.5C1207.96 5143.68 1247.94 5282.14 1305.76 5418.02C1366.87 5561.64 1465.7 5690.54 1474.12 5846.4C1483.54 6020.61 1489.36 6234.68 1355.97 6347.12C1217.99 6463.45 1005.25 6374.27 825.749 6392.99C693.402 6406.79 566.32 6472.49 436.558 6443.03C309.211 6414.11 219.93 6308.92 114.734 6231.54C2.55282 6149.02 -134.765 6093.17 -203.624 5972.13C-276.694 5843.68 -282.009 5690.29 -277.183 5542.59C-271.831 5378.79 -300.011 5175.38 -174.16 5070.39C-43.0793 4961.03 174.422 5111.76 328.166 5037.57C509.207 4950.21 551.24 4627.18 752.222 4623.37C937.054 4619.87 1017.88 4870.81 1123.55 5022.5Z" fill="url(#paint1_linear_1378_467)" fill-opacity="0.8"/>
</g>
<g filter="url(#filter2_f_1378_467)">
<path fill-rule="evenodd" clip-rule="evenodd" d="M289.842 1340.56C366.992 1317.47 441.658 1263.02 520.9 1277.38C597.707 1291.3 654.976 1358 707.023 1416.16C757.259 1472.31 811.641 1535.37 818.84 1610.36C826.308 1688.15 739.859 1753.56 746.885 1831.39C753.888 1908.96 869.153 1958.17 857.186 2035.14C845.939 2107.47 735.767 2118.74 692.971 2178.13C649.033 2239.1 654.823 2327 605.813 2383.98C554.644 2443.47 486.884 2503.79 408.568 2508.78C328.008 2513.92 268.606 2426.54 189.485 2410.53C111.728 2394.8 4.98303 2477.16 -46.4072 2416.73C-108.909 2343.23 -35.4104 2225.26 -49.262 2129.78C-56.7224 2078.36 -82.6247 2032.05 -108.734 1987.12C-142.388 1929.22 -222.249 1892.83 -225.835 1825.95C-229.22 1762.85 -152.528 1724.05 -125.917 1666.74C-98.5609 1607.81 -109.384 1531.69 -66.547 1482.84C-24.0859 1434.42 47.0047 1425.23 106.817 1401.35C167.033 1377.31 227.729 1359.16 289.842 1340.56Z" fill="url(#paint2_linear_1378_467)" fill-opacity="0.8"/>
</g>
<g filter="url(#filter3_f_1378_467)">
<path fill-rule="evenodd" clip-rule="evenodd" d="M1426.41 -368.031C1501.21 -304.9 1523.85 -203.201 1560.56 -112.464C1597.7 -20.6385 1646.31 68.7175 1643.13 167.721C1639.77 272.452 1588.02 365.538 1542.19 459.765C1485.59 576.124 1453.47 718.033 1342.81 785.107C1230.06 853.458 1076.81 866.51 955.181 815.593C836.196 765.782 816.941 599.006 713.662 521.727C604.981 440.406 405.537 483.249 347.215 360.679C290.326 241.123 413.269 110.839 459.032 -13.4013C496.238 -114.408 520.031 -221.281 591.292 -301.956C660.873 -380.729 754.941 -434.544 856.131 -462.957C952.125 -489.911 1051.77 -475.243 1150.13 -458.872C1247.41 -442.678 1351.04 -431.643 1426.41 -368.031Z" fill="url(#paint3_linear_1378_467)" fill-opacity="0.8"/>
</g>
<g filter="url(#filter4_f_1378_467)">
<path fill-rule="evenodd" clip-rule="evenodd" d="M1319.42 2161.77C1479.58 2143.94 1636.54 2191.9 1785.93 2252.32C1952.13 2319.53 2121.28 2393 2234.58 2531.89C2356.45 2681.29 2506.18 2877.31 2444.85 3060.08C2377.95 3259.42 2095.49 3277.97 1937.57 3416.85C1839.96 3502.7 1794.5 3628.82 1698.52 3716.47C1582.71 3822.23 1471.67 3943.68 1319.42 3981.37C1152.31 4022.74 952.132 4037.97 813.838 3935.48C674.845 3832.47 676.804 3627 620.553 3463.43C574.511 3329.55 527.943 3200.84 512.792 3060.08C496.205 2905.98 452.42 2738.63 527.971 2603.29C603.632 2467.75 773.667 2425.51 909.247 2349.88C1042.88 2275.33 1167.33 2178.69 1319.42 2161.77Z" fill="url(#paint4_linear_1378_467)" fill-opacity="0.8"/>
</g>
<g filter="url(#filter5_f_1378_467)">
<path fill-rule="evenodd" clip-rule="evenodd" d="M1074.02 8384.59C953.07 8308.22 1031.29 8085.62 924.904 7990.01C850.957 7923.55 712.534 8045.02 631.737 7987.09C558.983 7934.91 531.944 7815.03 564.716 7731.72C599.63 7642.96 758.021 7658.61 795.451 7570.88C841.594 7462.72 678.804 7282.31 781.149 7224.42C884.016 7166.24 976.991 7345.85 1074.02 7413.32C1118.9 7444.54 1144.79 7508.68 1199.09 7515.08C1312.35 7528.42 1451.95 7386.04 1531.98 7467.3C1601.03 7537.4 1451.5 7641.39 1412.47 7731.72C1389.46 7784.95 1350.99 7832.58 1349.08 7890.53C1344.63 8025.54 1459.9 8168.29 1394.19 8286.31C1338.94 8385.55 1170.05 8445.23 1074.02 8384.59Z" fill="url(#paint5_linear_1378_467)" fill-opacity="0.8"/>
</g>
<g filter="url(#filter6_f_1378_467)">
<path fill-rule="evenodd" clip-rule="evenodd" d="M703.637 8764.23C543.472 8782.06 386.514 8734.1 237.122 8673.68C70.9304 8606.47 -98.2222 8533 -211.52 8394.11C-333.391 8244.71 -483.127 8048.69 -421.79 7865.92C-354.89 7666.58 -72.4325 7648.03 85.481 7509.15C183.091 7423.3 228.554 7297.18 324.54 7209.53C440.342 7103.77 551.387 6982.32 703.637 6944.63C870.743 6903.26 1070.92 6888.03 1209.22 6990.52C1348.21 7093.53 1346.25 7299 1402.5 7462.57C1448.55 7596.45 1495.11 7725.16 1510.26 7865.92C1526.85 8020.02 1570.64 8187.37 1495.08 8322.71C1419.42 8458.25 1249.39 8500.49 1113.81 8576.12C980.176 8650.67 855.73 8747.31 703.637 8764.23Z" fill="url(#paint6_linear_1378_467)" fill-opacity="0.8"/>
</g>
</g>
<defs>
<filter id="filter0_f_1378_467" x="-510" y="3717" width="1799" height="1996" filterUnits="userSpaceOnUse" color-interpolation-filters="sRGB">
<feFlood flood-opacity="0" result="BackgroundImageFix"/>
<feBlend mode="normal" in="SourceGraphic" in2="BackgroundImageFix" result="shape"/>
<feGaussianBlur stdDeviation="200" result="effect1_foregroundBlur_1378_467"/>
</filter>
<filter id="filter1_f_1378_467" x="-678.485" y="4223.34" width="2556.89" height="2627.21" filterUnits="userSpaceOnUse" color-interpolation-filters="sRGB">
<feFlood flood-opacity="0" result="BackgroundImageFix"/>
<feBlend mode="normal" in="SourceGraphic" in2="BackgroundImageFix" result="shape"/>
<feGaussianBlur stdDeviation="200" result="effect1_foregroundBlur_1378_467"/>
</filter>
<filter id="filter2_f_1378_467" x="-625.944" y="875" width="1884" height="2034" filterUnits="userSpaceOnUse" color-interpolation-filters="sRGB">
<feFlood flood-opacity="0" result="BackgroundImageFix"/>
<feBlend mode="normal" in="SourceGraphic" in2="BackgroundImageFix" result="shape"/>
<feGaussianBlur stdDeviation="200" result="effect1_foregroundBlur_1378_467"/>
</filter>
<filter id="filter3_f_1378_467" x="-67.5259" y="-877.878" width="2110.81" height="2124.44" filterUnits="userSpaceOnUse" color-interpolation-filters="sRGB">
<feFlood flood-opacity="0" result="BackgroundImageFix"/>
<feBlend mode="normal" in="SourceGraphic" in2="BackgroundImageFix" result="shape"/>
<feGaussianBlur stdDeviation="200" result="effect1_foregroundBlur_1378_467"/>
</filter>
<filter id="filter4_f_1378_467" x="85.0557" y="1758" width="2774" height="2655" filterUnits="userSpaceOnUse" color-interpolation-filters="sRGB">
<feFlood flood-opacity="0" result="BackgroundImageFix"/>
<feBlend mode="normal" in="SourceGraphic" in2="BackgroundImageFix" result="shape"/>
<feGaussianBlur stdDeviation="200" result="effect1_foregroundBlur_1378_467"/>
</filter>
<filter id="filter5_f_1378_467" x="150.943" y="6813" width="1799" height="1996" filterUnits="userSpaceOnUse" color-interpolation-filters="sRGB">
<feFlood flood-opacity="0" result="BackgroundImageFix"/>
<feBlend mode="normal" in="SourceGraphic" in2="BackgroundImageFix" result="shape"/>
<feGaussianBlur stdDeviation="200" result="effect1_foregroundBlur_1378_467"/>
</filter>
<filter id="filter6_f_1378_467" x="-836" y="6513" width="2774" height="2655" filterUnits="userSpaceOnUse" color-interpolation-filters="sRGB">
<feFlood flood-opacity="0" result="BackgroundImageFix"/>
<feBlend mode="normal" in="SourceGraphic" in2="BackgroundImageFix" result="shape"/>
<feGaussianBlur stdDeviation="200" result="effect1_foregroundBlur_1378_467"/>
</filter>
<linearGradient id="paint0_linear_1378_467" x1="389.5" y1="4117" x2="389.5" y2="5313" gradientUnits="userSpaceOnUse">
<stop/>
<stop offset="0.605769" stop-color="#00092B"/>
<stop offset="1" stop-color="#00209E"/>
</linearGradient>
<linearGradient id="paint1_linear_1378_467" x1="1221.9" y1="4952.89" x2="121.088" y2="6272.19" gradientUnits="userSpaceOnUse">
<stop/>
<stop offset="0.605769" stop-color="#00092B"/>
<stop offset="1" stop-color="#00209E"/>
</linearGradient>
<linearGradient id="paint2_linear_1378_467" x1="316.056" y1="1275" x2="316.056" y2="2509" gradientUnits="userSpaceOnUse">
<stop/>
<stop offset="0.605769" stop-color="#00092B"/>
<stop offset="1" stop-color="#00209E"/>
</linearGradient>
<linearGradient id="paint3_linear_1378_467" x1="1449.93" y1="-349.296" x2="664.197" y2="631.573" gradientUnits="userSpaceOnUse">
<stop/>
<stop offset="0.605769" stop-color="#00092B"/>
<stop offset="1" stop-color="#00209E"/>
</linearGradient>
<linearGradient id="paint4_linear_1378_467" x1="1472.06" y1="2158" x2="1472.06" y2="4013" gradientUnits="userSpaceOnUse">
<stop/>
<stop offset="0.605769" stop-color="#00092B"/>
<stop offset="1" stop-color="#00209E"/>
</linearGradient>
<linearGradient id="paint5_linear_1378_467" x1="1050.44" y1="8409" x2="1050.44" y2="7213" gradientUnits="userSpaceOnUse">
<stop/>
<stop offset="0.605769" stop-color="#00092B"/>
<stop offset="1" stop-color="#00209E"/>
</linearGradient>
<linearGradient id="paint6_linear_1378_467" x1="551" y1="8768" x2="551" y2="6913" gradientUnits="userSpaceOnUse">
<stop/>
<stop offset="0.605769" stop-color="#00092B"/>
<stop offset="1" stop-color="#00209E"/>
</linearGradient>
<clipPath id="clip0_1378_467">
<rect width="1440" height="7806" fill="white"/>
</clipPath>
</defs>
</svg>
