<svg width="1440" height="7806" viewBox="0 0 1440 7806" fill="none" xmlns="http://www.w3.org/2000/svg">
<g clip-path="url(#clip0_1378_467)">
<rect width="1440" height="7806" fill="black"/>
<g filter="url(#filter0_f_1378_467)">
<path fill-rule="evenodd" clip-rule="evenodd" d="M400.983 3273.41C521.929 3349.78 443.71 3572.38 550.096 3667.99C624.042 3734.45 762.466 3612.98 843.262 3670.91C916.017 3723.09 943.056 3842.97 910.284 3926.28C875.369 4015.04 716.978 3999.39 679.549 4087.12C633.406 4195.28 796.196 4375.69 693.851 4433.58C590.984 4491.76 498.008 4312.15 400.983 4244.68C356.095 4213.46 330.211 4149.32 275.912 4142.92C162.652 4129.58 23.0506 4271.96 -56.9787 4190.7C-126.028 4120.6 23.4968 4016.61 62.5321 3926.28C85.5355 3873.05 124.014 3825.42 125.924 3767.47C130.373 3632.46 15.1003 3489.71 80.8077 3371.69C136.056 3272.45 304.948 3212.77 400.983 3273.41Z" fill="url(#paint0_linear_1378_467)" fill-opacity="0.8"/>
</g>
<g filter="url(#filter1_f_1378_467)">
<path fill-rule="evenodd" clip-rule="evenodd" d="M1579.6 4692.43C1664.01 4813.6 1704 4952.06 1761.81 5087.94C1822.93 5231.57 1921.76 5360.47 1930.18 5516.33C1939.6 5690.53 1945.42 5904.6 1812.03 6017.05C1674.04 6133.37 1461.31 6044.19 1281.8 6062.91C1149.46 6076.72 1022.38 6142.41 892.614 6112.95C765.267 6084.03 675.985 5978.84 570.79 5901.46C458.608 5818.95 321.291 5763.1 252.432 5642.05C179.361 5513.6 174.047 5360.22 178.873 5212.52C184.225 5048.71 156.045 4845.31 281.896 4740.31C412.976 4630.96 630.477 4781.68 784.221 4707.5C965.263 4620.14 1007.3 4297.11 1208.28 4293.3C1393.11 4289.8 1473.94 4540.74 1579.6 4692.43Z" fill="url(#paint1_linear_1378_467)" fill-opacity="0.8"/>
</g>
<g filter="url(#filter2_f_1378_467)">
<path fill-rule="evenodd" clip-rule="evenodd" d="M324.842 964.563C401.992 941.465 476.658 887.017 555.9 901.377C632.707 915.296 689.976 981.997 742.023 1040.16C792.259 1096.31 846.641 1159.37 853.84 1234.36C861.308 1312.15 774.859 1377.56 781.885 1455.39C788.888 1532.96 904.153 1582.17 892.186 1659.14C880.939 1731.47 770.767 1742.74 727.971 1802.13C684.033 1863.1 689.823 1951 640.813 2007.98C589.644 2067.47 521.884 2127.79 443.568 2132.78C363.008 2137.92 303.606 2050.54 224.485 2034.53C146.728 2018.8 39.983 2101.16 -11.4072 2040.73C-73.9091 1967.23 -0.410436 1849.26 -14.262 1753.78C-21.7224 1702.36 -47.6247 1656.05 -73.7342 1611.12C-107.388 1553.22 -187.249 1516.83 -190.835 1449.95C-194.22 1386.85 -117.528 1348.05 -90.9173 1290.74C-63.5609 1231.81 -74.3839 1155.69 -31.547 1106.84C10.9141 1058.42 82.0047 1049.23 141.817 1025.35C202.033 1001.31 262.729 983.159 324.842 964.563Z" fill="url(#paint2_linear_1378_467)" fill-opacity="0.8"/>
</g>
<g filter="url(#filter3_f_1378_467)">
<path fill-rule="evenodd" clip-rule="evenodd" d="M1426.41 -368.031C1501.21 -304.9 1523.85 -203.201 1560.56 -112.464C1597.7 -20.6385 1646.31 68.7175 1643.13 167.721C1639.77 272.452 1588.02 365.538 1542.19 459.765C1485.59 576.124 1453.47 718.033 1342.81 785.107C1230.06 853.458 1076.81 866.51 955.181 815.593C836.196 765.782 816.941 599.006 713.662 521.727C604.981 440.406 405.537 483.249 347.215 360.679C290.326 241.123 413.269 110.839 459.032 -13.4013C496.238 -114.408 520.031 -221.281 591.292 -301.956C660.873 -380.729 754.941 -434.544 856.131 -462.957C952.125 -489.911 1051.77 -475.243 1150.13 -458.872C1247.41 -442.678 1351.04 -431.643 1426.41 -368.031Z" fill="url(#paint3_linear_1378_467)" fill-opacity="0.8"/>
</g>
<g filter="url(#filter4_f_1378_467)">
<path fill-rule="evenodd" clip-rule="evenodd" d="M1354.42 1769.77C1514.58 1751.94 1671.54 1799.9 1820.93 1860.32C1987.13 1927.53 2156.28 2001 2269.58 2139.89C2391.45 2289.29 2541.18 2485.31 2479.85 2668.08C2412.95 2867.42 2130.49 2885.97 1972.57 3024.85C1874.96 3110.7 1829.5 3236.82 1733.52 3324.47C1617.71 3430.23 1506.67 3551.68 1354.42 3589.37C1187.31 3630.74 987.132 3645.97 848.838 3543.48C709.845 3440.47 711.804 3235 655.553 3071.43C609.511 2937.55 562.943 2808.84 547.792 2668.08C531.205 2513.98 487.42 2346.63 562.971 2211.29C638.632 2075.75 808.667 2033.51 944.247 1957.88C1077.88 1883.33 1202.33 1786.69 1354.42 1769.77Z" fill="url(#paint4_linear_1378_467)" fill-opacity="0.8"/>
</g>
<g filter="url(#filter5_f_1378_467)">
<path fill-rule="evenodd" clip-rule="evenodd" d="M1109.07 7484.59C988.126 7408.22 1066.35 7185.62 959.96 7090.01C886.013 7023.55 747.59 7145.02 666.793 7087.09C594.039 7034.91 567 6915.03 599.772 6831.72C634.686 6742.96 793.077 6758.61 830.507 6670.88C876.65 6562.72 713.86 6382.31 816.205 6324.42C919.072 6266.24 1012.05 6445.85 1109.07 6513.32C1153.96 6544.54 1179.84 6608.68 1234.14 6615.08C1347.4 6628.42 1487.01 6486.04 1567.03 6567.3C1636.08 6637.4 1486.56 6741.39 1447.52 6831.72C1424.52 6884.95 1386.04 6932.58 1384.13 6990.53C1379.68 7125.54 1494.96 7268.29 1429.25 7386.31C1374 7485.55 1205.11 7545.23 1109.07 7484.59Z" fill="url(#paint5_linear_1378_467)" fill-opacity="0.8"/>
</g>
<g filter="url(#filter6_f_1378_467)">
<path fill-rule="evenodd" clip-rule="evenodd" d="M155.637 8988.23C-4.52838 9006.06 -161.486 8958.1 -310.878 8897.68C-477.07 8830.47 -646.222 8757 -759.52 8618.11C-881.391 8468.71 -1031.13 8272.69 -969.79 8089.92C-902.89 7890.58 -620.432 7872.03 -462.519 7733.15C-364.909 7647.3 -319.446 7521.18 -223.46 7433.53C-107.658 7327.77 3.38727 7206.32 155.637 7168.63C322.743 7127.26 522.924 7112.03 661.218 7214.52C800.211 7317.53 798.251 7523 854.502 7686.57C900.545 7820.45 947.113 7949.16 962.264 8089.92C978.85 8244.02 1022.64 8411.37 947.084 8546.71C871.424 8682.25 701.389 8724.49 565.808 8800.12C432.176 8874.67 307.73 8971.31 155.637 8988.23Z" fill="url(#paint6_linear_1378_467)" fill-opacity="0.8"/>
</g>
</g>
<defs>
<filter id="filter0_f_1378_467" x="-474.944" y="2849" width="1799" height="1996" filterUnits="userSpaceOnUse" color-interpolation-filters="sRGB">
<feFlood flood-opacity="0" result="BackgroundImageFix"/>
<feBlend mode="normal" in="SourceGraphic" in2="BackgroundImageFix" result="shape"/>
<feGaussianBlur stdDeviation="200" result="effect1_foregroundBlur_1378_467"/>
</filter>
<filter id="filter1_f_1378_467" x="-222.429" y="3893.26" width="2556.89" height="2627.21" filterUnits="userSpaceOnUse" color-interpolation-filters="sRGB">
<feFlood flood-opacity="0" result="BackgroundImageFix"/>
<feBlend mode="normal" in="SourceGraphic" in2="BackgroundImageFix" result="shape"/>
<feGaussianBlur stdDeviation="200" result="effect1_foregroundBlur_1378_467"/>
</filter>
<filter id="filter2_f_1378_467" x="-590.944" y="499" width="1884" height="2034" filterUnits="userSpaceOnUse" color-interpolation-filters="sRGB">
<feFlood flood-opacity="0" result="BackgroundImageFix"/>
<feBlend mode="normal" in="SourceGraphic" in2="BackgroundImageFix" result="shape"/>
<feGaussianBlur stdDeviation="200" result="effect1_foregroundBlur_1378_467"/>
</filter>
<filter id="filter3_f_1378_467" x="-67.5259" y="-877.878" width="2110.81" height="2124.44" filterUnits="userSpaceOnUse" color-interpolation-filters="sRGB">
<feFlood flood-opacity="0" result="BackgroundImageFix"/>
<feBlend mode="normal" in="SourceGraphic" in2="BackgroundImageFix" result="shape"/>
<feGaussianBlur stdDeviation="200" result="effect1_foregroundBlur_1378_467"/>
</filter>
<filter id="filter4_f_1378_467" x="120.056" y="1366" width="2774" height="2655" filterUnits="userSpaceOnUse" color-interpolation-filters="sRGB">
<feFlood flood-opacity="0" result="BackgroundImageFix"/>
<feBlend mode="normal" in="SourceGraphic" in2="BackgroundImageFix" result="shape"/>
<feGaussianBlur stdDeviation="200" result="effect1_foregroundBlur_1378_467"/>
</filter>
<filter id="filter5_f_1378_467" x="186" y="5913" width="1799" height="1996" filterUnits="userSpaceOnUse" color-interpolation-filters="sRGB">
<feFlood flood-opacity="0" result="BackgroundImageFix"/>
<feBlend mode="normal" in="SourceGraphic" in2="BackgroundImageFix" result="shape"/>
<feGaussianBlur stdDeviation="200" result="effect1_foregroundBlur_1378_467"/>
</filter>
<filter id="filter6_f_1378_467" x="-1384" y="6737" width="2774" height="2655" filterUnits="userSpaceOnUse" color-interpolation-filters="sRGB">
<feFlood flood-opacity="0" result="BackgroundImageFix"/>
<feBlend mode="normal" in="SourceGraphic" in2="BackgroundImageFix" result="shape"/>
<feGaussianBlur stdDeviation="200" result="effect1_foregroundBlur_1378_467"/>
</filter>
<linearGradient id="paint0_linear_1378_467" x1="424.556" y1="3249" x2="424.556" y2="4445" gradientUnits="userSpaceOnUse">
<stop/>
<stop offset="0.605769" stop-color="#00092B"/>
<stop offset="1" stop-color="#00209E"/>
</linearGradient>
<linearGradient id="paint1_linear_1378_467" x1="1677.96" y1="4622.81" x2="577.144" y2="5942.11" gradientUnits="userSpaceOnUse">
<stop/>
<stop offset="0.605769" stop-color="#00092B"/>
<stop offset="1" stop-color="#00209E"/>
</linearGradient>
<linearGradient id="paint2_linear_1378_467" x1="351.056" y1="899" x2="351.056" y2="2133" gradientUnits="userSpaceOnUse">
<stop/>
<stop offset="0.605769" stop-color="#00092B"/>
<stop offset="1" stop-color="#00209E"/>
</linearGradient>
<linearGradient id="paint3_linear_1378_467" x1="1449.93" y1="-349.296" x2="664.197" y2="631.573" gradientUnits="userSpaceOnUse">
<stop/>
<stop offset="0.605769" stop-color="#00092B"/>
<stop offset="1" stop-color="#00209E"/>
</linearGradient>
<linearGradient id="paint4_linear_1378_467" x1="1507.06" y1="1766" x2="1507.06" y2="3621" gradientUnits="userSpaceOnUse">
<stop/>
<stop offset="0.605769" stop-color="#00092B"/>
<stop offset="1" stop-color="#00209E"/>
</linearGradient>
<linearGradient id="paint5_linear_1378_467" x1="1085.5" y1="7509" x2="1085.5" y2="6313" gradientUnits="userSpaceOnUse">
<stop/>
<stop offset="0.605769" stop-color="#00092B"/>
<stop offset="1" stop-color="#00209E"/>
</linearGradient>
<linearGradient id="paint6_linear_1378_467" x1="3" y1="8992" x2="3" y2="7137" gradientUnits="userSpaceOnUse">
<stop/>
<stop offset="0.605769" stop-color="#00092B"/>
<stop offset="1" stop-color="#00209E"/>
</linearGradient>
<clipPath id="clip0_1378_467">
<rect width="1440" height="7806" fill="white"/>
</clipPath>
</defs>
</svg>
