<svg width="21" height="21" viewBox="0 0 21 21" fill="none" xmlns="http://www.w3.org/2000/svg">
<path fill-rule="evenodd" clip-rule="evenodd" d="M0.0194624 0.653482C-0.212246 1.02343 1.64921 3.3337 4.31056 5.98077L9.01059 10.6546L4.25668 15.3822C0.502039 19.1161 -0.34277 20.262 0.2374 20.8356C0.817569 21.4092 1.97671 20.574 5.7535 16.862L10.5356 12.1622L15.3176 16.862C19.0944 20.574 20.2535 21.4092 20.8337 20.8356C21.4139 20.262 20.5691 19.1161 16.8144 15.3822L12.0605 10.6546L16.8144 5.9269C20.5691 2.19307 21.4139 1.04711 20.8337 0.473537C20.2535 -0.100034 19.0944 0.735164 15.3176 4.4471L10.5356 9.14695L5.88223 4.57377C3.32266 2.05811 1.04868 0 0.828347 0C0.608014 0 0.243986 0.294186 0.0194624 0.653482Z" fill="black"/>
</svg>
