<svg width="122" height="46" viewBox="0 0 122 46" fill="none" xmlns="http://www.w3.org/2000/svg">
<path d="M0.750977 24.3357C0.835071 24.4029 0.955223 24.5059 1.10938 24.6433C1.41669 24.9172 1.84594 25.3159 2.36621 25.8103C3.40604 26.7985 4.80285 28.1632 6.30566 29.6648C7.99988 31.3578 9.26503 32.6258 10.1436 33.5789C10.5826 34.0551 10.9199 34.4462 11.1631 34.7683C11.4102 35.0956 11.543 35.3297 11.5977 35.4919C11.6239 35.5701 11.6269 35.6159 11.625 35.6384C11.6236 35.6557 11.6199 35.6618 11.6152 35.6677C11.5948 35.6933 11.5146 35.7555 11.2725 35.8083C10.7954 35.9123 10.0015 35.9197 8.86035 35.9197C8.2045 35.9197 7.605 35.9356 7.16699 35.9617C6.94954 35.9746 6.7649 35.9907 6.63086 36.0095C6.56618 36.0186 6.49942 36.0304 6.44336 36.0466C6.41799 36.054 6.37324 36.0682 6.32812 36.0945C6.30552 36.1077 6.26626 36.1336 6.22949 36.1765C6.20032 36.2106 6.16576 36.2641 6.15039 36.3347L6.14258 36.4109L6.1543 36.5076C6.15822 36.5233 6.16322 36.5379 6.16699 36.5496C6.17478 36.5737 6.18538 36.6018 6.19629 36.6306C6.21841 36.689 6.24938 36.7669 6.28809 36.8601C6.36595 37.0475 6.47824 37.3074 6.61523 37.6199C6.88955 38.2455 7.26725 39.0883 7.68262 39.9968C8.09527 40.8994 8.46955 41.7799 8.74023 42.4695C8.87558 42.8143 8.98389 43.1081 9.05762 43.3318C9.09453 43.4438 9.12222 43.5348 9.13965 43.6033C9.15937 43.6809 9.15918 43.704 9.15918 43.6941C9.15914 43.7677 9.12716 43.8991 9.04883 44.0544C8.97291 44.2049 8.87093 44.3423 8.77051 44.4333C8.54186 44.6403 8.40306 44.6943 8.31738 44.697C8.2509 44.6991 8.13099 44.6718 7.93262 44.45C7.73331 44.227 7.50003 43.8571 7.21191 43.2908C6.92613 42.729 6.5968 41.9947 6.2002 41.0583C5.80094 40.1155 5.4142 39.2427 5.1123 38.5955C4.96158 38.2723 4.83004 38.0026 4.72852 37.8074C4.67812 37.7104 4.63332 37.6269 4.59473 37.5632C4.57569 37.5319 4.55431 37.4998 4.5332 37.4714C4.52213 37.4565 4.47747 37.3946 4.40723 37.3513C4.31385 37.2939 4.22093 37.2914 4.16797 37.2957C4.11267 37.3001 4.06527 37.3147 4.03223 37.3269C3.96578 37.3514 3.90009 37.3884 3.84277 37.4246C3.72475 37.4991 3.58153 37.6088 3.42676 37.739C3.11418 38.0021 2.71883 38.3776 2.31348 38.8025C1.81476 39.3254 1.42851 39.6829 1.13184 39.9011C0.983926 40.0099 0.868655 40.0767 0.78125 40.113C0.692743 40.1498 0.653271 40.1471 0.647461 40.1462C0.631738 40.144 0.62007 40.141 0.611328 40.1394C0.574746 40.0599 0.526627 39.8587 0.490234 39.3621C0.417044 38.363 0.39786 36.4062 0.365234 32.5261C0.34148 29.7206 0.345714 27.7286 0.380859 26.4089C0.398452 25.7484 0.423498 25.2628 0.456055 24.9304C0.472392 24.7637 0.489651 24.6433 0.506836 24.5623C0.51314 24.5326 0.519219 24.5116 0.523438 24.4978C0.572904 24.4434 0.636014 24.3903 0.700195 24.3513C0.715092 24.3423 0.730265 24.3364 0.743164 24.3298C0.745655 24.3318 0.748377 24.3336 0.750977 24.3357Z" fill="black" stroke="white" stroke-width="0.7"/>
<rect x="7.85889" width="114.141" height="20.2086" rx="10.1043" fill="white"/>
<path d="M23.2045 14.2045V13.3736H23.663C23.8397 13.3736 23.9877 13.339 24.1071 13.2697C24.2289 13.2005 24.3292 13.1109 24.408 13.0011C24.4891 12.8913 24.556 12.7766 24.6085 12.6573L24.7231 12.385L22.1873 6.769H23.1472L25.1673 11.3249L27.0154 6.769H27.961L25.4251 12.9151C25.3249 13.1444 25.2102 13.3569 25.0813 13.5527C24.9548 13.7485 24.7816 13.9061 24.562 14.0255C24.3447 14.1448 24.0498 14.2045 23.6773 14.2045H23.2045ZM31.4611 14.2045C30.9884 14.2045 30.5669 14.1234 30.1968 13.961C29.8291 13.7986 29.5366 13.573 29.3193 13.284C29.1044 12.9927 28.9874 12.6549 28.9683 12.2704H29.8709C29.89 12.5068 29.9712 12.711 30.1144 12.8829C30.2577 13.0524 30.4451 13.1838 30.6768 13.2769C30.9084 13.37 31.1651 13.4166 31.4468 13.4166C31.762 13.4166 32.0414 13.3616 32.2849 13.2518C32.5285 13.142 32.7195 12.9892 32.858 12.7934C32.9965 12.5976 33.0657 12.3707 33.0657 12.1128C33.0657 11.843 32.9989 11.6054 32.8652 11.4001C32.7314 11.1924 32.5356 11.03 32.2778 10.913C32.0199 10.796 31.7047 10.7375 31.3322 10.7375H30.7448V9.94952H31.3322C31.6235 9.94952 31.879 9.89699 32.0987 9.79193C32.3207 9.68686 32.4939 9.53882 32.618 9.3478C32.7446 9.15678 32.8078 8.93233 32.8078 8.67445C32.8078 8.42612 32.7529 8.21002 32.6431 8.02617C32.5333 7.84231 32.3781 7.69904 32.1775 7.59637C31.9793 7.49369 31.7453 7.44235 31.4755 7.44235C31.2224 7.44235 30.9836 7.48892 30.7591 7.58204C30.5371 7.67277 30.3556 7.8053 30.2147 7.9796C30.0738 8.15152 29.9974 8.35926 29.9855 8.60281H29.1259C29.1402 8.21838 29.256 7.88171 29.4733 7.59278C29.6906 7.30148 29.9748 7.07464 30.3258 6.91227C30.6791 6.7499 31.0672 6.66872 31.4898 6.66872C31.9435 6.66872 32.3327 6.76064 32.6574 6.9445C32.9822 7.12597 33.2317 7.36595 33.406 7.66442C33.5803 7.96289 33.6674 8.28524 33.6674 8.63147C33.6674 9.04455 33.5588 9.39675 33.3415 9.68806C33.1266 9.97937 32.8341 10.1811 32.464 10.2934V10.3507C32.9272 10.4271 33.289 10.6241 33.5493 10.9416C33.8095 11.2568 33.9397 11.6472 33.9397 12.1128C33.9397 12.5116 33.831 12.8698 33.6137 13.1873C33.3988 13.5025 33.1051 13.7509 32.7326 13.9323C32.3601 14.1138 31.9363 14.2045 31.4611 14.2045ZM35.5335 14.1042V6.769H36.4217V10.0355H40.3329V6.769H41.2212V14.1042H40.3329V10.8234H36.4217V14.1042H35.5335ZM43.3003 14.1042H42.3691L45.0625 6.769H45.9794L48.6728 14.1042H47.7416L45.5496 7.92946H45.4923L43.3003 14.1042ZM43.6442 11.2389H47.3978V12.0269H43.6442V11.2389ZM48.5573 7.55697V6.769H54.0588V7.55697H51.7522V14.1042H50.8639V7.55697H48.5573ZM56.0887 9.84923H58.1804C58.7057 9.84923 59.1486 9.93519 59.5091 10.1071C59.8721 10.279 60.1467 10.5214 60.3329 10.8342C60.5216 11.147 60.6159 11.5159 60.6159 11.9409C60.6159 12.3659 60.5216 12.7408 60.3329 13.0656C60.1467 13.3903 59.8721 13.6446 59.5091 13.8285C59.1486 14.0123 58.7057 14.1042 58.1804 14.1042H55.4296V6.769H56.3179V13.3306H58.1804C58.5146 13.3306 58.7976 13.2638 59.0292 13.13C59.2632 12.9939 59.4399 12.8196 59.5593 12.6071C59.6811 12.3922 59.742 12.1654 59.742 11.9266C59.742 11.5756 59.607 11.2735 59.3372 11.0204C59.0674 10.7649 58.6818 10.6372 58.1804 10.6372H56.0887V9.84923ZM64.8557 14.1042V6.769H69.2826V7.55697H65.7439V9.84923H67.6064C68.1317 9.84923 68.5746 9.93519 68.9352 10.1071C69.2981 10.279 69.5727 10.5214 69.759 10.8342C69.9476 11.147 70.0419 11.5159 70.0419 11.9409C70.0419 12.3659 69.9476 12.7408 69.759 13.0656C69.5727 13.3903 69.2981 13.6446 68.9352 13.8285C68.5746 14.0123 68.1317 14.1042 67.6064 14.1042H64.8557ZM65.7439 13.3306H67.6064C67.9407 13.3306 68.2236 13.2638 68.4552 13.13C68.6892 12.9939 68.8659 12.8196 68.9853 12.6071C69.1071 12.3922 69.168 12.1654 69.168 11.9266C69.168 11.5756 69.0331 11.2735 68.7633 11.0204C68.4935 10.7649 68.1078 10.6372 67.6064 10.6372H65.7439V13.3306ZM77.6933 10.4366C77.6933 11.2103 77.5536 11.8788 77.2742 12.4424C76.9948 13.0059 76.6116 13.4404 76.1245 13.7461C75.6374 14.0517 75.081 14.2045 74.4554 14.2045C73.8298 14.2045 73.2735 14.0517 72.7864 13.7461C72.2993 13.4404 71.916 13.0059 71.6367 12.4424C71.3573 11.8788 71.2176 11.2103 71.2176 10.4366C71.2176 9.66299 71.3573 8.99441 71.6367 8.43089C71.916 7.86738 72.2993 7.4328 72.7864 7.12717C73.2735 6.82153 73.8298 6.66872 74.4554 6.66872C75.081 6.66872 75.6374 6.82153 76.1245 7.12717C76.6116 7.4328 76.9948 7.86738 77.2742 8.43089C77.5536 8.99441 77.6933 9.66299 77.6933 10.4366ZM76.8337 10.4366C76.8337 9.80148 76.7274 9.26542 76.5149 8.82846C76.3048 8.3915 76.0194 8.06079 75.6589 7.83634C75.3007 7.61189 74.8996 7.49966 74.4554 7.49966C74.0113 7.49966 73.609 7.61189 73.2484 7.83634C72.8902 8.06079 72.6049 8.3915 72.3924 8.82846C72.1823 9.26542 72.0772 9.80148 72.0772 10.4366C72.0772 11.0718 72.1823 11.6078 72.3924 12.0448C72.6049 12.4818 72.8902 12.8125 73.2484 13.0369C73.609 13.2614 74.0113 13.3736 74.4554 13.3736C74.8996 13.3736 75.3007 13.2614 75.6589 13.0369C76.0194 12.8125 76.3048 12.4818 76.5149 12.0448C76.7274 11.6078 76.8337 11.0718 76.8337 10.4366ZM78.5564 14.1042V13.2876H78.7713C79.077 13.2876 79.3146 13.1897 79.4841 12.9939C79.6536 12.7981 79.7754 12.4818 79.8494 12.0448C79.9258 11.6078 79.9772 11.0288 80.0034 10.3077L80.1324 6.769H84.6023V14.1042H83.714V7.55697H80.9776L80.863 10.4796C80.8344 11.2485 80.7639 11.9027 80.6517 12.4424C80.5395 12.982 80.3425 13.3939 80.0607 13.678C79.779 13.9622 79.3683 14.1042 78.8286 14.1042H78.5564ZM87.036 9.84923H89.1277C89.653 9.84923 90.096 9.93519 90.4565 10.1071C90.8194 10.279 91.094 10.5214 91.2803 10.8342C91.4689 11.147 91.5632 11.5159 91.5632 11.9409C91.5632 12.3659 91.4689 12.7408 91.2803 13.0656C91.094 13.3903 90.8194 13.6446 90.4565 13.8285C90.096 14.0123 89.653 14.1042 89.1277 14.1042H86.377V6.769H87.2652V13.3306H89.1277C89.462 13.3306 89.7449 13.2638 89.9766 13.13C90.2106 12.9939 90.3873 12.8196 90.5066 12.6071C90.6284 12.3922 90.6893 12.1654 90.6893 11.9266C90.6893 11.5756 90.5544 11.2735 90.2846 11.0204C90.0148 10.7649 89.6291 10.6372 89.1277 10.6372H87.036V9.84923ZM92.9664 6.769H93.8546V13.2876H96.4334V6.769H97.3217V13.2876H99.9005V6.769H100.789V14.1042H92.9664V6.769ZM102.57 14.1042V6.769H106.997V7.55697H103.458V10.0355H106.767V10.8234H103.458V13.3163H107.054V14.1042H102.57Z" fill="black"/>
</svg>
