<svg width="652" height="271" viewBox="0 0 652 271" fill="none" xmlns="http://www.w3.org/2000/svg">
<rect width="650" height="271" fill="#BEBEBE"/>
<g filter="url(#filter0_d_2296_729)">
<g clip-path="url(#clip0_2296_729)">
<rect width="564.192" height="55.9215" transform="translate(72.0811 83.1023) rotate(-4.17777)" fill="black"/>
<path d="M452.93 89.9963C480.999 93.805 538.988 95.6142 546.391 72.381" stroke="#54F614" stroke-width="0.805152"/>
<path d="M163.22 110.064C215.718 138.186 319.112 59.5821 366.826 82.2189" stroke="#54F614" stroke-width="0.805152"/>
<path d="M183.398 115.474L183.458 114.32L183.735 114.335C183.926 114.194 184.08 113.907 184.119 113.587C184.148 113.349 184.171 113.005 184.222 112.123L186.098 112.22L185.982 114.451L186.41 114.473L186.35 115.627L185.923 115.605L185.961 114.861L183.864 114.753L183.825 115.497L183.398 115.474ZM184.24 114.361L185.538 114.428L185.633 112.608L184.617 112.555C184.591 113.066 184.565 113.454 184.532 113.669C184.488 113.979 184.371 114.201 184.24 114.361ZM187.686 114.955C187.108 114.95 186.75 114.657 186.755 114.163C186.76 113.613 187.157 113.389 187.768 113.373C188.04 113.364 188.301 113.378 188.507 113.385L188.509 113.158C188.513 112.769 188.293 112.578 187.954 112.574C187.57 112.57 187.363 112.796 187.277 113.068L186.861 112.98C186.982 112.492 187.363 112.196 187.957 112.202C188.546 112.208 188.944 112.495 188.937 113.145L188.92 114.912L188.503 114.908L188.506 114.597C188.337 114.812 188.064 114.959 187.686 114.955ZM187.199 114.145C187.197 114.4 187.389 114.58 187.701 114.583C188.151 114.588 188.498 114.347 188.501 113.991L188.504 113.735C188.281 113.722 188.026 113.72 187.776 113.728C187.398 113.741 187.202 113.884 187.199 114.145ZM190.353 114.896L190.313 112.662L189.341 112.679L189.334 112.268L191.723 112.226L191.73 112.638L190.758 112.655L190.797 114.888L190.353 114.896ZM193.074 114.878C192.497 114.9 192.125 114.625 192.106 114.131C192.085 113.582 192.47 113.339 193.08 113.293C193.352 113.271 193.613 113.272 193.819 113.27L193.81 113.042C193.795 112.654 193.565 112.473 193.227 112.487C192.844 112.501 192.647 112.737 192.574 113.012L192.155 112.945C192.252 112.452 192.618 112.138 193.212 112.115C193.801 112.092 194.212 112.36 194.237 113.009L194.305 114.775L193.888 114.791L193.876 114.48C193.718 114.703 193.452 114.863 193.074 114.878ZM192.549 114.092C192.559 114.347 192.76 114.517 193.071 114.505C193.521 114.488 193.856 114.23 193.842 113.875L193.832 113.62C193.61 113.617 193.354 113.627 193.105 113.648C192.728 113.679 192.539 113.831 192.549 114.092ZM196.287 114.655L196.114 112.016L198.354 111.868L198.527 114.507L198.084 114.537L197.937 112.308L196.585 112.397L196.731 114.625L196.287 114.655ZM199.469 115.509L199.079 111.806L199.521 111.76L199.56 112.136C199.718 111.828 200.056 111.647 200.416 111.61C201.062 111.542 201.636 111.95 201.729 112.829C201.821 113.702 201.384 114.279 200.638 114.357C200.29 114.394 199.984 114.303 199.768 114.103L199.911 115.462L199.469 115.509ZM199.682 113.29C199.733 113.771 200.149 114.012 200.597 113.965C201.083 113.914 201.351 113.489 201.288 112.892C201.227 112.312 200.882 111.957 200.38 112.01C199.971 112.053 199.588 112.401 199.649 112.975L199.682 113.29ZM203.633 114.035C202.888 114.117 202.331 113.68 202.234 112.802C202.138 111.924 202.586 111.377 203.332 111.295C204.077 111.213 204.64 111.649 204.736 112.527C204.833 113.405 204.379 113.953 203.633 114.035ZM202.676 112.754C202.743 113.361 203.071 113.7 203.59 113.642C204.109 113.585 204.361 113.183 204.294 112.576C204.228 111.968 203.894 111.63 203.375 111.687C202.856 111.745 202.609 112.146 202.676 112.754ZM205.547 113.755L205.179 111.136L206.312 110.977C206.918 110.892 207.244 111.099 207.306 111.539C207.343 111.803 207.273 112.06 207.019 112.174C207.326 112.198 207.504 112.426 207.545 112.717C207.607 113.163 207.385 113.497 206.758 113.585L205.547 113.755ZM205.924 113.321L206.71 113.21C207.041 113.164 207.159 113.007 207.124 112.76C207.088 112.501 206.921 112.39 206.596 112.435L205.815 112.545L205.924 113.321ZM205.764 112.188L206.518 112.082C206.821 112.039 206.934 111.888 206.9 111.646C206.867 111.41 206.712 111.303 206.382 111.349L205.661 111.45L205.764 112.188ZM209.357 113.276C208.669 113.373 208.094 112.994 207.965 112.08C207.837 111.167 208.324 110.638 209.012 110.542C209.699 110.445 210.226 110.837 210.334 111.607C210.347 111.701 210.359 111.789 210.361 111.839L208.402 112.114C208.507 112.7 208.841 112.961 209.303 112.897C209.721 112.838 209.914 112.569 209.966 112.304L210.368 112.332C210.321 112.793 209.978 113.189 209.357 113.276ZM208.37 111.765L209.899 111.55C209.83 111.134 209.526 110.851 209.064 110.916C208.635 110.976 208.373 111.266 208.37 111.765ZM210.87 113.757L210.676 112.618L210.949 112.572C211.105 112.393 211.192 112.079 211.16 111.758C211.136 111.519 211.083 111.179 210.94 110.307L212.791 109.991L213.167 112.192L213.589 112.12L213.784 113.259L213.362 113.331L213.237 112.597L211.167 112.951L211.292 113.685L210.87 113.757ZM211.448 112.486L212.729 112.267L212.422 110.471L211.42 110.642C211.506 111.146 211.566 111.53 211.581 111.748C211.606 112.059 211.54 112.301 211.448 112.486ZM215.194 112.319C214.509 112.436 213.923 112.074 213.767 111.165C213.612 110.256 214.082 109.713 214.767 109.596C215.451 109.478 215.989 109.854 216.121 110.621C216.137 110.714 216.152 110.802 216.155 110.852L214.205 111.186C214.327 111.768 214.669 112.02 215.129 111.941C215.545 111.869 215.73 111.595 215.774 111.329L216.177 111.344C216.143 111.806 215.813 112.213 215.194 112.319ZM214.162 110.838L215.685 110.577C215.603 110.163 215.291 109.889 214.831 109.968C214.404 110.041 214.15 110.338 214.162 110.838ZM216.993 111.943L216.48 109.349L216.916 109.263L217.126 110.325L218.505 110.053L218.295 108.99L218.731 108.904L219.244 111.498L218.808 111.585L218.585 110.456L217.206 110.729L217.429 111.857L216.993 111.943ZM220.064 111.336L219.546 108.742L219.966 108.658L220.371 110.691L221.312 108.39L221.78 108.296L222.298 110.89L221.878 110.974L221.474 108.947L220.533 111.242L220.064 111.336ZM224.645 110.373L224.427 109.403L223.847 109.533L223.436 110.644L222.932 110.758L223.397 109.606C222.971 109.61 222.69 109.4 222.597 108.988C222.473 108.435 222.792 108.078 223.361 107.951L224.5 107.695L225.079 110.276L224.645 110.373ZM223.022 108.875C223.084 109.152 223.304 109.268 223.651 109.19L224.345 109.034L224.151 108.172L223.457 108.328C223.116 108.404 222.96 108.599 223.022 108.875ZM227.053 109.826L226.445 107.252L227.077 107.102L228.46 109.036L228.813 106.692L229.446 106.542L230.054 109.116L229.633 109.216L229.135 107.112L228.762 109.422L228.324 109.525L226.955 107.622L227.454 109.731L227.053 109.826ZM231.896 108.715C231.222 108.885 230.61 108.57 230.384 107.675C230.159 106.781 230.586 106.203 231.259 106.033C231.933 105.863 232.498 106.196 232.688 106.951C232.711 107.042 232.733 107.128 232.74 107.178L230.822 107.662C230.989 108.233 231.35 108.457 231.802 108.343C232.212 108.24 232.374 107.952 232.398 107.683L232.8 107.667C232.803 108.131 232.505 108.561 231.896 108.715ZM230.753 107.319L232.25 106.941C232.136 106.534 231.804 106.285 231.352 106.4C230.931 106.506 230.702 106.822 230.753 107.319ZM233.937 109.249L232.985 105.65L233.415 105.537L233.512 105.902C233.62 105.574 233.927 105.344 234.276 105.251C234.905 105.085 235.534 105.401 235.76 106.255C235.985 107.104 235.642 107.741 234.917 107.932C234.578 108.022 234.262 107.979 234.018 107.814L234.367 109.135L233.937 109.249ZM233.809 107.024C233.932 107.492 234.381 107.666 234.816 107.551C235.289 107.426 235.488 106.965 235.335 106.385C235.186 105.821 234.791 105.523 234.302 105.653C233.905 105.758 233.58 106.16 233.728 106.718L233.809 107.024ZM237.824 107.143C237.102 107.344 236.482 107.003 236.245 106.152C236.007 105.301 236.362 104.689 237.084 104.488C237.807 104.286 238.432 104.626 238.669 105.476C238.906 106.327 238.547 106.941 237.824 107.143ZM236.673 106.033C236.837 106.622 237.215 106.903 237.718 106.763C238.221 106.622 238.405 106.185 238.241 105.596C238.077 105.007 237.693 104.728 237.19 104.868C236.687 105.008 236.509 105.444 236.673 106.033ZM239.67 106.565L238.926 104.027L241.08 103.395L241.824 105.933L241.397 106.058L240.769 103.915L239.468 104.296L240.096 106.44L239.67 106.565ZM242.936 106.725L241.845 103.166L242.27 103.035L242.381 103.397C242.477 103.065 242.774 102.823 243.12 102.717C243.741 102.526 244.383 102.818 244.642 103.662C244.899 104.502 244.581 105.151 243.864 105.371C243.529 105.474 243.212 105.443 242.961 105.288L243.361 106.595L242.936 106.725ZM242.721 104.507C242.863 104.969 243.318 105.126 243.748 104.994C244.216 104.851 244.397 104.382 244.222 103.809C244.051 103.251 243.644 102.969 243.161 103.117C242.768 103.237 242.459 103.652 242.628 104.204L242.721 104.507ZM245.679 104.748L244.856 102.235L245.263 102.102L245.907 104.071L246.567 101.675L247.021 101.526L247.844 104.04L247.437 104.173L246.794 102.209L246.133 104.6L245.679 104.748ZM250.122 103.276L249.804 102.333L249.241 102.523L248.948 103.671L248.458 103.836L248.8 102.642C248.377 102.691 248.076 102.511 247.941 102.111C247.76 101.574 248.04 101.187 248.593 101L249.698 100.627L250.543 103.134L250.122 103.276ZM248.352 101.955C248.442 102.224 248.673 102.316 249.01 102.202L249.684 101.975L249.402 101.138L248.728 101.365C248.396 101.477 248.261 101.687 248.352 101.955ZM251.98 102.62L251.214 100.522L250.301 100.855L250.16 100.469L252.404 99.6495L252.545 100.036L251.632 100.369L252.398 102.467L251.98 102.62ZM253.834 101.939L252.908 99.4621L253.309 99.3123L254.035 101.254L254.595 98.8318L255.042 98.6645L255.968 101.142L255.567 101.292L254.844 99.3556L254.282 101.772L253.834 101.939ZM258.193 100.235L257.812 99.316L257.263 99.5438L257.049 100.709L256.572 100.907L256.832 99.6927C256.413 99.7703 256.1 99.6113 255.938 99.2212C255.721 98.6978 255.974 98.2921 256.513 98.0686L257.59 97.6214L258.604 100.064L258.193 100.235ZM256.337 99.0376C256.446 99.2994 256.682 99.3758 257.011 99.2395L257.668 98.967L257.329 98.151L256.672 98.4235C256.349 98.5577 256.229 98.7759 256.337 99.0376Z" fill="white"/>
<rect x="83.2925" y="105.685" width="77.5874" height="19.9228" rx="1.26998" transform="rotate(-4.17777 83.2925 105.685)" fill="#222127"/>
<path d="M93.6122 119.55C91.3204 119.718 90.24 118.328 90.0431 115.633C89.8506 112.997 90.7133 111.405 93.005 111.238C95.3087 111.07 96.3815 112.519 96.5741 115.156C96.771 117.851 95.9158 119.382 93.6122 119.55ZM91.0643 115.558C91.2153 117.624 91.9551 118.764 93.5463 118.648C95.1493 118.531 95.7038 117.296 95.5529 115.23C95.4011 113.152 94.674 112.023 93.071 112.141C91.4798 112.257 90.9126 113.48 91.0643 115.558ZM98.3761 119.083L98.2946 117.967L100.95 115.755C102.064 114.826 102.827 114.15 102.743 113.01C102.682 112.167 102.047 111.485 100.86 111.572C99.6722 111.658 98.9533 112.439 98.7881 113.609L97.837 113.499C97.9634 111.962 99.0363 110.797 100.806 110.668C102.563 110.54 103.659 111.486 103.765 112.935C103.876 114.455 102.9 115.314 101.582 116.389L99.5654 118.041L104.28 117.697L104.349 118.647L98.3761 119.083ZM105.798 118.541L105.702 117.235L106.973 117.142L107.068 118.448L105.798 118.541ZM111.609 118.236C109.318 118.403 108.237 117.014 108.04 114.318C107.848 111.682 108.71 110.091 111.002 109.923C113.306 109.755 114.379 111.205 114.571 113.841C114.768 116.536 113.913 118.067 111.609 118.236ZM109.062 114.243C109.212 116.31 109.952 117.449 111.543 117.333C113.147 117.216 113.701 115.982 113.55 113.916C113.398 111.838 112.671 110.709 111.068 110.826C109.477 110.942 108.91 112.165 109.062 114.243ZM119.434 117.664C116.762 117.859 116.141 116.054 115.985 113.917C115.753 110.746 116.927 109.491 118.886 109.348C120.477 109.231 121.504 109.885 121.931 111.155L120.984 111.427C120.784 110.821 120.104 110.166 118.952 110.25C117.717 110.34 116.749 111.151 116.921 113.502C117.328 112.864 118.183 112.467 119.168 112.395C120.688 112.284 122.154 112.905 122.293 114.805C122.409 116.396 121.286 117.529 119.434 117.664ZM117.163 115.18C117.243 116.272 118.169 116.861 119.345 116.775C120.592 116.684 121.355 116.02 121.272 114.88C121.188 113.74 120.337 113.193 119.09 113.284C117.843 113.375 117.08 114.04 117.163 115.18ZM123.946 117.215L123.85 115.909L125.121 115.816L125.216 117.122L123.946 117.215ZM126.798 117.007L126.717 115.891L129.373 113.679C130.486 112.75 131.249 112.074 131.166 110.934C131.104 110.091 130.469 109.409 129.282 109.495C128.094 109.582 127.375 110.363 127.21 111.533L126.259 111.423C126.386 109.886 127.458 108.721 129.228 108.592C130.985 108.464 132.081 109.41 132.187 110.859C132.298 112.379 131.322 113.238 130.004 114.313L127.988 115.965L132.702 115.62L132.771 116.57L126.798 117.007ZM137.411 116.351C135.119 116.518 134.039 115.129 133.842 112.433C133.649 109.797 134.512 108.206 136.804 108.039C139.107 107.87 140.18 109.32 140.373 111.956C140.57 114.652 139.714 116.183 137.411 116.351ZM134.863 112.359C135.014 114.425 135.754 115.565 137.345 115.448C138.948 115.331 139.502 114.097 139.352 112.031C139.2 109.953 138.473 108.824 136.87 108.941C135.278 109.057 134.711 110.281 134.863 112.359ZM142.175 115.884L142.093 114.767L144.749 112.556C145.863 111.627 146.625 110.95 146.542 109.81C146.48 108.967 145.846 108.286 144.658 108.372C143.471 108.459 142.752 109.24 142.587 110.41L141.636 110.3C141.762 108.763 142.835 107.598 144.604 107.469C146.362 107.341 147.457 108.287 147.563 109.736C147.674 111.256 146.698 112.115 145.38 113.19L143.364 114.842L148.078 114.497L148.148 115.447L142.175 115.884ZM152.657 115.237C149.985 115.432 149.364 113.627 149.207 111.49C148.976 108.32 150.15 107.064 152.109 106.921C153.7 106.805 154.727 107.458 155.154 108.728L154.207 109C154.007 108.394 153.327 107.739 152.175 107.823C150.94 107.913 149.972 108.724 150.144 111.075C150.551 110.437 151.406 110.04 152.391 109.968C153.911 109.857 155.377 110.478 155.516 112.378C155.632 113.969 154.509 115.102 152.657 115.237ZM150.386 112.753C150.466 113.845 151.392 114.434 152.568 114.348C153.815 114.257 154.578 113.593 154.495 112.453C154.411 111.313 153.56 110.766 152.313 110.857C151.066 110.948 150.303 111.613 150.386 112.753Z" fill="white"/>
<path d="M324.402 85.3763C323.708 85.5259 323.097 85.1924 322.903 84.2925C322.709 83.3925 323.128 82.837 323.822 82.6874C324.494 82.5425 324.912 82.8212 325.109 83.261L324.706 83.4215C324.583 83.1927 324.355 82.9753 323.905 83.0723C323.406 83.1798 323.21 83.6135 323.337 84.199C323.46 84.7736 323.82 85.0989 324.319 84.9914C324.774 84.8933 324.882 84.6034 324.897 84.3334L325.331 84.3193C325.334 84.8066 325.074 85.2314 324.402 85.3763ZM326.785 84.8329L326.367 82.643L325.414 82.8249L325.337 82.4218L327.679 81.9749L327.756 82.378L326.803 82.5599L327.22 84.7498L326.785 84.8329ZM329.465 84.398C328.897 84.4969 328.492 84.2747 328.407 83.7884C328.313 83.2475 328.662 82.956 329.259 82.8294C329.525 82.7719 329.784 82.7381 329.987 82.7084L329.948 82.4843C329.881 82.1019 329.63 81.9542 329.297 82.0122C328.92 82.0779 328.757 82.3371 328.722 82.6191L328.298 82.6085C328.329 82.1077 328.649 81.748 329.233 81.6462C329.813 81.5453 330.254 81.7555 330.366 82.3947L330.668 84.1321L330.259 84.2035L330.205 83.8975C330.078 84.1391 329.836 84.3333 329.465 84.398ZM328.841 83.6904C328.884 83.9418 329.106 84.0833 329.412 84.03C329.855 83.9529 330.152 83.6536 330.091 83.3039L330.047 83.0526C329.826 83.0797 329.575 83.1235 329.331 83.1772C328.962 83.2583 328.796 83.4337 328.841 83.6904ZM331.595 85.0782L331.098 81.3959L331.537 81.3365L331.588 81.7103C331.736 81.3992 332.068 81.2088 332.426 81.1606C333.069 81.0738 333.653 81.4649 333.771 82.3388C333.888 83.2072 333.47 83.7953 332.728 83.8955C332.382 83.9422 332.074 83.8607 331.852 83.6668L332.034 85.0188L331.595 85.0782ZM331.743 82.8589C331.807 83.3371 332.23 83.5654 332.675 83.5053C333.159 83.44 333.414 83.0082 333.334 82.4147C333.256 81.8376 332.902 81.4937 332.401 81.5612C331.995 81.6161 331.623 81.9741 331.7 82.5456L331.743 82.8589ZM335.227 83.5258L334.975 81.3106L334.011 81.4201L333.965 81.0123L336.334 80.7433L336.38 81.1511L335.416 81.2606L335.668 83.4758L335.227 83.5258ZM338.373 83.2104L338.151 80.58L339.289 80.4837C339.897 80.4324 340.211 80.6563 340.248 81.0984C340.27 81.3636 340.186 81.6156 339.927 81.7154C340.231 81.7565 340.396 81.9931 340.421 82.2859C340.459 82.7335 340.219 83.0544 339.589 83.1076L338.373 83.2104ZM338.772 82.7982L339.562 82.7314C339.894 82.7034 340.02 82.5535 339.999 82.3049C339.977 82.0451 339.817 81.9251 339.491 81.9527L338.706 82.019L338.772 82.7982ZM338.676 81.6598L339.433 81.5958C339.737 81.5701 339.858 81.4263 339.838 81.1831C339.818 80.9455 339.669 80.8301 339.337 80.8581L338.613 80.9193L338.676 81.6598ZM342.294 82.943L342.279 82.4219L343.562 81.4493C344.1 81.0407 344.469 80.7422 344.455 80.21C344.444 79.8164 344.163 79.4856 343.609 79.5008C343.054 79.5159 342.703 79.8639 342.602 80.4048L342.161 80.3336C342.253 79.621 342.777 79.1018 343.603 79.0793C344.423 79.0569 344.913 79.5206 344.932 80.197C344.951 80.9066 344.479 81.2856 343.842 81.7579L342.869 82.4835L345.07 82.4234L345.082 82.8669L342.294 82.943ZM347.242 82.9634C346.172 82.935 345.736 82.241 345.769 80.9825C345.802 79.7518 346.275 79.0543 347.345 79.0827C348.421 79.1113 348.851 79.8328 348.818 81.0635C348.785 82.322 348.318 82.9919 347.242 82.9634ZM346.246 80.9952C346.22 81.9598 346.511 82.5223 347.254 82.542C348.002 82.5619 348.316 82.0155 348.342 81.0509C348.367 80.0807 348.083 79.5239 347.334 79.504C346.591 79.4843 346.272 80.025 346.246 80.9952ZM349.471 82.9772L349.504 82.3681L350.096 82.4L350.063 83.0092L349.471 82.9772ZM349.58 80.9504L349.613 80.3413L350.206 80.3732L350.173 80.9824L349.58 80.9504ZM352.27 83.2954C351.206 83.1737 350.832 82.4442 350.975 81.1935C351.115 79.9703 351.648 79.3168 352.711 79.4386C353.78 79.561 354.146 80.3173 354.006 81.5405C353.863 82.7912 353.339 83.4178 352.27 83.2954ZM351.449 81.2478C351.339 82.2065 351.579 82.7921 352.318 82.8767C353.062 82.9618 353.422 82.4449 353.532 81.4862C353.642 80.522 353.407 79.9425 352.663 79.8573C351.925 79.7728 351.56 80.2835 351.449 81.2478ZM355.934 83.8598C354.883 83.6559 354.566 82.8997 354.806 81.6638C355.041 80.4552 355.622 79.8449 356.673 80.0488C357.729 80.2537 358.035 81.0361 357.801 82.2448C357.561 83.4806 356.99 84.0647 355.934 83.8598ZM355.274 81.7547C355.091 82.702 355.284 83.3045 356.014 83.446C356.749 83.5886 357.149 83.1012 357.332 82.1539C357.517 81.2012 357.328 80.6052 356.593 80.4626C355.863 80.321 355.459 80.8019 355.274 81.7547Z" fill="white"/>
<rect x="366.808" y="81.9749" width="85.8733" height="19.8857" rx="1.26761" transform="rotate(-4.17777 366.808 81.9749)" fill="#222127"/>
<path d="M373.174 95.991L372.762 90.3494L375.204 90.171C376.507 90.0758 377.175 90.5633 377.244 91.5114C377.285 92.0803 377.098 92.6183 376.541 92.8258C377.192 92.9213 377.539 93.4321 377.585 94.0603C377.655 95.0203 377.133 95.7019 375.782 95.8006L373.174 95.991ZM374.04 95.1176L375.735 94.9938C376.446 94.9418 376.72 94.6239 376.681 94.0905C376.641 93.5335 376.3 93.2724 375.601 93.3235L373.918 93.4464L374.04 95.1176ZM373.861 92.676L375.485 92.5574C376.137 92.5098 376.401 92.2045 376.363 91.683C376.325 91.1734 376.009 90.9224 375.298 90.9744L373.745 91.0878L373.861 92.676ZM379.123 95.5565L378.711 89.9148L379.624 89.8481L379.947 94.269L382.551 89.6343L383.571 89.5598L383.983 95.2015L383.07 95.2682L382.748 90.8591L380.143 95.482L379.123 95.5565ZM385.756 95.072L385.344 89.4303L390.132 89.0806L390.544 94.7223L389.596 94.7915L389.248 90.0269L386.356 90.2382L386.704 95.0028L385.756 95.072ZM394.865 94.4066L394.453 88.765L395.401 88.6957L395.57 91.0069L396.53 90.9368L398.044 88.5026L399.146 88.4221L397.328 91.2598L399.653 94.0569L398.515 94.14L396.577 91.7436L395.629 91.8129L395.813 94.3374L394.865 94.4066ZM402.402 93.9752C401.169 94.0653 400.354 93.5052 400.277 92.4504C400.191 91.277 400.997 90.7296 402.298 90.5869C402.877 90.5208 403.435 90.5038 403.875 90.4837L403.839 89.9977C403.779 89.1681 403.275 88.7997 402.552 88.8525C401.734 88.9123 401.331 89.4302 401.196 90.024L400.294 89.9111C400.467 88.8499 401.226 88.151 402.494 88.0584C403.751 87.9666 404.648 88.5088 404.749 89.8955L405.025 93.6645L404.136 93.7294L404.087 93.0657C403.765 93.5539 403.208 93.9164 402.402 93.9752ZM401.222 92.3337C401.262 92.8789 401.704 93.2279 402.368 93.1794C403.328 93.1093 404.025 92.5341 403.969 91.7756L403.929 91.2303C403.454 91.2413 402.908 91.2811 402.377 91.3438C401.573 91.4382 401.181 91.7766 401.222 92.3337ZM408.083 93.4411L407.735 88.6765L405.661 88.828L405.597 87.951L410.693 87.5787L410.757 88.4557L408.683 88.6073L409.031 93.3719L408.083 93.4411ZM414.371 93.101C412.89 93.2092 411.716 92.3178 411.573 90.3503C411.429 88.3829 412.543 87.3244 414.025 87.2162C415.506 87.108 416.574 88.019 416.695 89.6783C416.71 89.8798 416.723 90.0694 416.719 90.1769L412.5 90.4852C412.64 91.7499 413.316 92.3559 414.311 92.2832C415.212 92.2174 415.661 91.6722 415.811 91.1132L416.665 91.2295C416.498 92.2068 415.71 93.0031 414.371 93.101ZM412.481 89.7359L415.776 89.4952C415.686 88.5961 415.079 87.9494 414.083 88.0221C413.159 88.0897 412.558 88.6698 412.481 89.7359ZM418.28 92.6963L417.868 87.0546L421.613 86.781L421.677 87.6581L418.88 87.8624L419.228 92.627L418.28 92.6963ZM425.381 92.2968C423.781 92.4136 422.625 91.4376 422.487 89.5531C422.35 87.6685 423.351 86.5349 424.951 86.418C426.551 86.3012 427.719 87.2764 427.856 89.1609C427.994 91.0454 426.981 92.1799 425.381 92.2968ZM423.435 89.4838C423.531 90.7875 424.205 91.5366 425.319 91.4552C426.433 91.3739 427.003 90.5339 426.908 89.2301C426.813 87.9264 426.127 87.1782 425.013 87.2595C423.899 87.3409 423.34 88.18 423.435 89.4838ZM429.664 94.1764L429.084 86.2353L430.032 86.1661L430.091 86.972C430.449 86.3263 431.185 85.9627 431.955 85.9064C433.342 85.8051 434.54 86.7185 434.678 88.603C434.815 90.4757 433.842 91.6787 432.242 91.7956C431.495 91.8501 430.848 91.6352 430.399 91.1914L430.612 94.1071L429.664 94.1764ZM430.272 89.4492C430.347 90.4803 431.221 91.0242 432.181 90.954C433.224 90.8779 433.826 89.9879 433.732 88.7078C433.642 87.4633 432.929 86.6813 431.85 86.7601C430.973 86.8241 430.132 87.5409 430.222 88.7736L430.272 89.4492ZM436.325 91.3782L435.912 85.7365L436.825 85.6699L437.148 90.0908L439.753 85.456L440.772 85.3816L441.184 91.0232L440.271 91.0899L439.949 86.6809L437.344 91.3037L436.325 91.3782ZM446.311 90.6487L446.156 88.5272L444.888 88.6198L443.668 90.8418L442.566 90.9223L443.912 88.6316C443.009 88.5068 442.481 87.9734 442.415 87.0727C442.327 85.8637 443.114 85.2105 444.358 85.1196L446.847 84.9378L447.259 90.5795L446.311 90.6487ZM443.349 86.9687C443.393 87.5732 443.821 87.8875 444.58 87.832L446.097 87.7212L445.959 85.8367L444.442 85.9475C443.696 86.0021 443.305 86.3642 443.349 86.9687Z" fill="white"/>
<rect x="546.25" y="58.8872" width="69.8733" height="19.8857" rx="1.26761" transform="rotate(-4.17777 546.25 58.8872)" fill="#222127"/>
<path d="M552.784 75.2027L552.204 67.2617L553.152 67.1925L553.211 67.9984C553.569 67.3527 554.305 66.9891 555.075 66.9328C556.462 66.8315 557.661 67.7449 557.798 69.6294C557.935 71.502 556.963 72.7051 555.363 72.8219C554.616 72.8765 553.969 72.6616 553.519 72.2178L553.732 75.1335L552.784 75.2027ZM553.392 70.4755C553.467 71.5067 554.341 72.0505 555.301 71.9804C556.344 71.9042 556.946 71.0142 556.853 69.7342C556.762 68.4897 556.05 67.7077 554.971 67.7864C554.094 67.8505 553.253 68.5673 553.343 69.8L553.392 70.4755ZM561.789 72.3525C560.189 72.4694 559.033 71.4934 558.895 69.6088C558.758 67.7243 559.759 66.5907 561.359 66.4738C562.959 66.3569 564.127 67.3321 564.264 69.2167C564.402 71.1012 563.389 72.2357 561.789 72.3525ZM559.843 69.5396C559.939 70.8433 560.613 71.5924 561.727 71.511C562.841 71.4297 563.411 70.5897 563.316 69.2859C563.221 67.9822 562.535 67.2339 561.421 67.3153C560.307 67.3967 559.748 68.2358 559.843 69.5396ZM568.188 71.8851C566.635 71.9985 565.49 70.9979 565.353 69.1252C565.219 67.2881 566.23 66.1181 567.841 66.0003C568.553 65.9484 569.225 66.1852 569.626 66.6088L569.404 63.5746L570.352 63.5053L570.941 71.5649L570.028 71.6315L569.974 70.8967C569.658 71.456 569.029 71.8236 568.188 71.8851ZM566.301 69.056C566.389 70.2649 567.083 71.1198 568.209 71.0375C569.347 70.9544 569.884 70.1407 569.802 69.0266L569.766 68.5288C569.677 67.3199 568.898 66.7691 567.938 66.8392C566.86 66.918 566.208 67.7759 566.301 69.056ZM574.238 71.324L571.586 65.846L572.593 65.7724L574.722 70.2877L576.185 65.51L577.156 65.4391L575.281 71.2478L574.238 71.324ZM580.224 71.006C578.991 71.096 578.176 70.5359 578.098 69.4811C578.013 68.3077 578.819 67.7603 580.119 67.6177C580.698 67.5515 581.257 67.5346 581.696 67.5144L581.661 67.0284C581.6 66.1988 581.097 65.8304 580.374 65.8832C579.556 65.943 579.153 66.4609 579.017 67.0547L578.116 66.9418C578.288 65.8807 579.047 65.1818 580.316 65.0891C581.572 64.9974 582.47 65.5395 582.571 66.9262L582.846 70.6952L581.957 70.7602L581.909 70.0964C581.587 70.5846 581.03 70.9471 580.224 71.006ZM579.043 69.3644C579.083 69.9096 579.526 70.2586 580.189 70.2101C581.149 70.14 581.846 69.5648 581.791 68.8063L581.751 68.2611C581.275 68.272 580.73 68.3118 580.198 68.3745C579.395 68.4689 579.002 68.8074 579.043 69.3644ZM584.538 70.5716L583.95 62.5121L584.898 62.4428L585.487 70.5024L584.538 70.5716ZM587.175 70.379L587.08 69.0753L588.348 68.9826L588.443 70.2864L587.175 70.379ZM592.31 70.1231C590.793 70.2339 589.596 69.3443 589.452 67.3768C589.308 65.4093 590.363 64.3552 591.88 64.2444C593.35 64.137 594.153 64.8529 594.44 65.8448L593.538 66.0655C593.345 65.5434 592.925 65.014 591.942 65.0859C590.851 65.1656 590.307 66.0275 590.4 67.3076C590.492 68.5639 591.158 69.3613 592.248 69.2816C593.244 69.2089 593.559 68.6259 593.672 68.0575L594.597 68.1568C594.458 69.1917 593.779 70.0158 592.31 70.1231ZM598.387 69.6792C596.787 69.7961 595.631 68.82 595.494 66.9355C595.356 65.051 596.358 63.9173 597.958 63.8005C599.558 63.6836 600.725 64.6588 600.863 66.5433C601.001 68.4278 599.987 69.5623 598.387 69.6792ZM596.442 66.8662C596.537 68.17 597.212 68.9191 598.326 68.8377C599.44 68.7563 600.01 67.9163 599.915 66.6126C599.819 65.3088 599.133 64.5606 598.019 64.642C596.905 64.7234 596.347 65.5625 596.442 66.8662ZM602.502 69.2595L602.09 63.6178L603.014 63.5502L603.067 64.2732C603.395 63.7012 604.073 63.3538 604.736 63.3053C605.684 63.2361 606.367 63.6033 606.696 64.1988C607.002 63.4973 607.782 63.0828 608.553 63.0265C609.821 62.9339 610.69 63.5735 610.787 64.9009L611.059 68.6344L610.111 68.7036L609.849 65.1124C609.793 64.342 609.374 63.8245 608.437 63.8929C607.572 63.9561 606.94 64.5981 607.008 65.5344L607.255 68.9123L606.307 68.9815L606.044 65.3903C605.988 64.6199 605.557 64.1033 604.621 64.1717C603.756 64.2349 603.135 64.876 603.204 65.8123L603.45 69.1902L602.502 69.2595Z" fill="white"/>
<circle cx="161.286" cy="108.731" r="5.27009" transform="rotate(-4.17777 161.286 108.731)" fill="#535353"/>
<circle cx="161.37" cy="108.491" r="2.83517" transform="rotate(-4.17777 161.37 108.491)" fill="#54F614"/>
<circle cx="366.809" cy="81.9749" r="5.27009" transform="rotate(-4.17777 366.809 81.9749)" fill="#535353"/>
<circle cx="366.788" cy="81.9575" r="2.83517" transform="rotate(-4.17777 366.788 81.9575)" fill="#54F614"/>
<circle cx="547.215" cy="72.1002" r="3.51339" transform="rotate(-4.17777 547.215 72.1002)" fill="#535353"/>
<circle cx="547.272" cy="71.9398" r="1.89012" transform="rotate(-4.17777 547.272 71.9398)" fill="#54F614"/>
<circle cx="452.582" cy="89.7276" r="3.58659" transform="rotate(-4.17777 452.582 89.7276)" fill="#535353"/>
<circle cx="452.638" cy="89.5648" r="1.92949" transform="rotate(-4.17777 452.638 89.5648)" fill="#54F614"/>
<path d="M501.46 89.2915L501.293 86.657L503.529 86.5152L503.696 89.1497L503.253 89.1778L503.112 86.9529L501.762 87.0385L501.903 89.2634L501.46 89.2915ZM505.574 89.0841C504.882 89.129 504.338 88.7085 504.279 87.7899C504.219 86.8712 504.743 86.3815 505.435 86.3366C506.127 86.2917 506.621 86.7209 506.672 87.4957C506.678 87.5898 506.683 87.6783 506.681 87.7285L504.711 87.8563C504.772 88.447 505.085 88.7324 505.549 88.7022C505.97 88.6749 506.182 88.4222 506.254 88.1619L506.652 88.2195C506.57 88.6749 506.2 89.0435 505.574 89.0841ZM504.705 87.5066L506.243 87.4068C506.205 86.9869 505.924 86.6828 505.459 86.7129C505.028 86.7409 504.745 87.0094 504.705 87.5066ZM507.506 89.966L507.135 86.2689L507.577 86.2246L507.614 86.5999C507.773 86.2941 508.112 86.1152 508.471 86.0793C509.116 86.0145 509.687 86.4255 509.775 87.3029C509.862 88.1748 509.424 88.7482 508.679 88.8229C508.331 88.8578 508.027 88.7657 507.811 88.5643L507.947 89.9218L507.506 89.966ZM507.73 87.7531C507.778 88.2332 508.193 88.4759 508.64 88.4311C509.125 88.3824 509.395 87.9597 509.335 87.3637C509.277 86.7843 508.935 86.4285 508.433 86.4788C508.024 86.5197 507.641 86.8647 507.698 87.4386L507.73 87.7531ZM511.624 88.4931C510.936 88.5784 510.368 88.1906 510.255 87.277C510.141 86.3634 510.636 85.8438 511.324 85.7585C512.012 85.6732 512.531 86.0727 512.626 86.8432C512.638 86.9368 512.649 87.0248 512.649 87.075L510.69 87.318C510.785 87.9042 511.114 88.1707 511.577 88.1134C511.995 88.0615 512.191 87.7969 512.248 87.5328L512.649 87.5669C512.594 88.0263 512.246 88.416 511.624 88.4931ZM510.664 86.9692L512.194 86.7795C512.131 86.3626 511.833 86.0755 511.37 86.1328C510.941 86.186 510.674 86.4705 510.664 86.9692ZM515.042 87.9555L514.159 87.0182L513.595 88.1754L513.09 88.252L513.865 86.7769L512.749 85.6338L513.264 85.5556L514.085 86.4181L514.602 85.3523L515.106 85.2757L514.375 86.6657L515.558 87.8772L515.042 87.9555ZM517.05 87.6668C516.313 87.7985 515.73 87.4013 515.575 86.5333C515.42 85.6653 515.83 85.0906 516.567 84.959C517.304 84.8273 517.893 85.2235 518.048 86.0916C518.203 86.9596 517.787 87.5352 517.05 87.6668ZM516.012 86.4553C516.119 87.0558 516.468 87.3709 516.981 87.2792C517.494 87.1876 517.718 86.7701 517.611 86.1696C517.504 85.569 517.149 85.2549 516.636 85.3466C516.123 85.4383 515.904 85.8548 516.012 86.4553ZM518.648 88.0782L518.409 86.9498L518.68 86.8923C518.828 86.7078 518.903 86.3916 518.858 86.0723C518.825 85.8356 518.759 85.498 518.581 84.6343L520.415 84.2456L520.877 86.4266L521.295 86.3381L521.534 87.4665L521.117 87.555L520.962 86.8281L518.912 87.2627L519.066 87.9897L518.648 88.0782ZM519.174 86.7876L520.443 86.5186L520.066 84.7391L519.073 84.9495C519.179 85.4486 519.254 85.8295 519.277 86.0457C519.315 86.3553 519.259 86.5996 519.174 86.7876ZM521.863 86.6212L521.219 84.0612L521.633 83.957L522.138 85.963L522.961 83.6227L523.424 83.5064L524.068 86.0664L523.654 86.1706L523.15 84.1699L522.325 86.5048L521.863 86.6212ZM526.011 85.5129L525.205 82.999L525.627 82.8636L525.957 83.8935L527.294 83.4652L526.963 82.4354L527.386 82.2999L528.192 84.8138L527.769 84.9492L527.419 83.856L526.083 84.2843L526.433 85.3775L526.011 85.5129ZM529.745 84.3083C529.206 84.5124 528.767 84.3702 528.592 83.9086C528.398 83.3951 528.685 83.0431 529.248 82.8065C529.498 82.6999 529.746 82.6181 529.94 82.5507L529.859 82.338C529.722 81.9749 529.448 81.877 529.132 81.9968C528.774 82.1322 528.662 82.4174 528.681 82.701L528.262 82.7704C528.198 82.2728 528.445 81.8592 529 81.6492C529.55 81.4412 530.023 81.5644 530.253 82.1713L530.877 83.8208L530.488 83.968L530.378 83.6775C530.299 83.9387 530.098 84.1749 529.745 84.3083ZM528.999 83.7309C529.089 83.9695 529.334 84.0668 529.624 83.9569C530.044 83.7979 530.279 83.448 530.154 83.116L530.064 82.8774C529.852 82.9456 529.614 83.0358 529.384 83.1345C529.037 83.2835 528.907 83.4871 528.999 83.7309ZM533.69 82.6175C533.05 82.9264 532.378 82.7461 531.978 81.9172C531.577 81.0883 531.854 80.4496 532.493 80.1408C533.112 79.8416 533.583 80.0142 533.878 80.3952L533.525 80.6459C533.352 80.4525 533.079 80.2951 532.664 80.4953C532.205 80.7173 532.117 81.1849 532.377 81.7242C532.633 82.2535 533.059 82.485 533.518 82.263C533.938 82.0603 533.974 81.7532 533.926 81.4872L534.344 81.3713C534.461 81.8442 534.309 82.3183 533.69 82.6175ZM535.944 81.4242C535.445 81.7144 534.989 81.6465 534.74 81.2199C534.464 80.7455 534.69 80.3509 535.206 80.0248C535.435 79.8785 535.666 79.7569 535.846 79.6585L535.732 79.462C535.537 79.1265 535.25 79.0751 534.958 79.2453C534.627 79.4378 534.564 79.7376 534.629 80.0143L534.228 80.1516C534.083 79.6713 534.258 79.2227 534.771 78.9242C535.279 78.6285 535.766 78.672 536.093 79.2328L536.98 80.7569L536.62 80.9662L536.464 80.6978C536.429 80.9684 536.27 81.2345 535.944 81.4242ZM535.113 80.9776C535.241 81.198 535.498 81.2538 535.766 81.0975C536.155 80.8715 536.329 80.4877 536.151 80.1809L536.022 79.9605C535.825 80.0625 535.604 80.1908 535.394 80.3259C535.077 80.53 534.982 80.7523 535.113 80.9776ZM537.641 80.3261L536.101 78.1822L536.448 77.9331L537.654 79.613L537.56 77.1338L537.947 76.8555L539.488 78.9994L539.141 79.2486L537.937 77.5731L538.028 80.0478L537.641 80.3261ZM535.782 77.1683L536.084 76.9515C536.249 77.1335 536.432 77.1795 536.657 77.0177C536.878 76.8591 536.888 76.6741 536.768 76.4597L537.07 76.2429C537.306 76.5994 537.282 76.965 536.845 77.2789C536.403 77.596 536.04 77.5087 535.782 77.1683ZM540.637 78.0079L539.126 76.3686L538.412 77.0263L538.134 76.7245L539.888 75.1084L540.166 75.4101L539.452 76.0679L540.963 77.7072L540.637 78.0079Z" fill="white"/>
</g>
<rect opacity="0.8" x="12" y="87.491" width="60.24" height="55.9215" transform="rotate(-4.17777 12 87.491)" fill="#D9D9D9"/>
</g>
<g filter="url(#filter1_d_2296_729)">
<rect width="564.192" height="55.9215" transform="translate(73.5981 147.203)" fill="black"/>
<path d="M469.413 181.88C497.13 187.724 538.353 193.696 547.429 171.064" stroke="#54F614" stroke-width="0.805152"/>
<path d="M162.531 180.734C212.842 212.606 321.688 141.743 367.625 167.796" stroke="#54F614" stroke-width="0.805152"/>
<path d="M182.261 187.6L182.405 186.453L182.681 186.488C182.881 186.362 183.056 186.087 183.118 185.77C183.164 185.535 183.212 185.194 183.327 184.318L185.191 184.551L184.913 186.767L185.338 186.82L185.194 187.967L184.77 187.914L184.862 187.175L182.778 186.914L182.686 187.653L182.261 187.6ZM183.182 186.551L184.472 186.712L184.699 184.904L183.69 184.777C183.626 185.285 183.573 185.67 183.524 185.882C183.457 186.187 183.324 186.4 183.182 186.551ZM186.576 187.395C186 187.347 185.664 187.029 185.705 186.536C185.75 185.988 186.162 185.794 186.773 185.822C187.045 185.833 187.305 185.866 187.509 185.889L187.528 185.662C187.56 185.274 187.354 185.067 187.016 185.039C186.634 185.008 186.411 185.218 186.305 185.482L185.897 185.365C186.053 184.887 186.455 184.619 187.047 184.668C187.634 184.717 188.009 185.033 187.956 185.68L187.809 187.441L187.394 187.407L187.42 187.097C187.236 187.299 186.952 187.426 186.576 187.395ZM186.149 186.551C186.128 186.805 186.307 186.999 186.617 187.024C187.066 187.062 187.429 186.847 187.459 186.492L187.48 186.237C187.259 186.208 187.005 186.187 186.755 186.177C186.377 186.163 186.171 186.291 186.149 186.551ZM189.24 187.529L189.363 185.299L188.392 185.245L188.415 184.835L190.801 184.967L190.778 185.378L189.807 185.324L189.683 187.554L189.24 187.529ZM191.956 187.71C191.378 187.69 191.027 187.389 191.044 186.895C191.063 186.345 191.465 186.131 192.076 186.13C192.349 186.128 192.61 186.148 192.815 186.16L192.823 185.933C192.836 185.544 192.62 185.348 192.282 185.336C191.898 185.323 191.685 185.543 191.593 185.813L191.179 185.715C191.312 185.23 191.7 184.944 192.294 184.964C192.883 184.984 193.273 185.281 193.251 185.931L193.19 187.697L192.774 187.682L192.784 187.371C192.61 187.582 192.333 187.723 191.956 187.71ZM191.489 186.888C191.48 187.143 191.668 187.327 191.979 187.338C192.429 187.354 192.782 187.121 192.794 186.766L192.803 186.51C192.581 186.492 192.326 186.483 192.075 186.485C191.697 186.489 191.498 186.627 191.489 186.888ZM195.176 187.721L195.196 185.077L197.44 185.093L197.421 187.738L196.976 187.734L196.993 185.501L195.637 185.491L195.621 187.725L195.176 187.721ZM198.287 188.805L198.168 185.084L198.612 185.07L198.624 185.447C198.804 185.152 199.154 184.997 199.515 184.985C200.165 184.964 200.708 185.414 200.736 186.297C200.764 187.174 200.287 187.718 199.537 187.742C199.187 187.753 198.889 187.64 198.687 187.424L198.731 188.79L198.287 188.805ZM198.661 186.608C198.677 187.091 199.075 187.362 199.524 187.347C200.013 187.332 200.311 186.927 200.292 186.328C200.273 185.745 199.956 185.366 199.45 185.382C199.039 185.395 198.633 185.714 198.651 186.291L198.661 186.608ZM202.548 187.638C201.798 187.666 201.275 187.19 201.242 186.307C201.21 185.424 201.697 184.912 202.447 184.884C203.196 184.857 203.725 185.332 203.758 186.215C203.79 187.098 203.297 187.611 202.548 187.638ZM201.687 186.291C201.709 186.902 202.011 187.263 202.533 187.244C203.055 187.225 203.336 186.842 203.313 186.231C203.291 185.62 202.983 185.259 202.461 185.278C201.939 185.297 201.664 185.68 201.687 186.291ZM204.477 187.499L204.3 184.86L205.443 184.784C206.052 184.743 206.363 184.973 206.392 185.417C206.41 185.683 206.321 185.934 206.06 186.029C206.364 186.075 206.525 186.315 206.545 186.609C206.575 187.058 206.328 187.375 205.696 187.418L204.477 187.499ZM204.884 187.093L205.677 187.04C206.009 187.018 206.139 186.87 206.122 186.621C206.105 186.36 205.946 186.237 205.619 186.259L204.832 186.312L204.884 187.093ZM204.808 185.951L205.567 185.9C205.872 185.88 205.996 185.738 205.98 185.494C205.964 185.256 205.817 185.138 205.484 185.16L204.758 185.208L204.808 185.951ZM208.311 187.299C207.618 187.345 207.072 186.925 207.011 186.004C206.949 185.084 207.473 184.593 208.166 184.546C208.859 184.5 209.356 184.929 209.407 185.705C209.414 185.799 209.42 185.888 209.417 185.938L207.444 186.07C207.506 186.662 207.82 186.947 208.285 186.916C208.707 186.888 208.918 186.634 208.99 186.373L209.389 186.43C209.308 186.887 208.937 187.257 208.311 187.299ZM207.437 185.72L208.978 185.617C208.939 185.196 208.657 184.892 208.191 184.923C207.759 184.952 207.476 185.222 207.437 185.72ZM209.786 187.889L209.674 186.739L209.951 186.712C210.119 186.545 210.229 186.238 210.22 185.915C210.214 185.676 210.186 185.333 210.106 184.453L211.976 184.272L212.191 186.495L212.617 186.454L212.728 187.604L212.302 187.645L212.23 186.904L210.14 187.107L210.212 187.848L209.786 187.889ZM210.454 186.663L211.748 186.538L211.573 184.724L210.561 184.822C210.61 185.331 210.642 185.718 210.641 185.936C210.643 186.249 210.56 186.485 210.454 186.663ZM214.203 186.769C213.511 186.836 212.953 186.432 212.864 185.514C212.775 184.596 213.284 184.089 213.975 184.022C214.666 183.955 215.175 184.369 215.251 185.143C215.26 185.237 215.268 185.326 215.268 185.376L213.299 185.567C213.379 186.157 213.701 186.432 214.166 186.387C214.586 186.346 214.79 186.087 214.853 185.824L215.254 185.868C215.187 186.327 214.828 186.708 214.203 186.769ZM213.282 185.217L214.819 185.068C214.767 184.649 214.476 184.353 214.012 184.398C213.58 184.44 213.306 184.718 213.282 185.217ZM216.024 186.526L215.702 183.901L216.143 183.846L216.275 184.922L217.67 184.75L217.538 183.675L217.979 183.621L218.302 186.246L217.861 186.3L217.72 185.159L216.325 185.33L216.465 186.471L216.024 186.526ZM219.131 186.143L218.804 183.519L219.229 183.466L219.485 185.522L220.59 183.296L221.065 183.237L221.392 185.861L220.967 185.914L220.712 183.863L219.606 186.084L219.131 186.143ZM223.77 185.517L223.624 184.533L223.036 184.621L222.545 185.7L222.034 185.776L222.581 184.661C222.156 184.634 221.891 184.404 221.829 183.986C221.746 183.426 222.089 183.094 222.667 183.008L223.821 182.836L224.21 185.452L223.77 185.517ZM222.261 183.905C222.303 184.185 222.513 184.317 222.865 184.264L223.568 184.16L223.438 183.286L222.735 183.391C222.389 183.442 222.219 183.625 222.261 183.905ZM226.212 185.147L225.793 182.535L226.435 182.432L227.672 184.462L228.196 182.149L228.837 182.046L229.257 184.657L228.829 184.726L228.486 182.592L227.946 184.868L227.501 184.939L226.274 182.942L226.618 185.081L226.212 185.147ZM231.123 184.392C230.439 184.512 229.851 184.153 229.691 183.245C229.531 182.336 229.999 181.791 230.683 181.671C231.367 181.55 231.907 181.923 232.042 182.69C232.058 182.783 232.073 182.87 232.077 182.92L230.129 183.263C230.254 183.845 230.597 184.095 231.056 184.014C231.472 183.941 231.655 183.666 231.698 183.399L232.101 183.412C232.07 183.875 231.741 184.283 231.123 184.392ZM230.084 182.916L231.606 182.648C231.521 182.234 231.208 181.962 230.749 182.043C230.322 182.118 230.07 182.416 230.084 182.916ZM233.12 185.073L232.433 181.414L232.869 181.332L232.939 181.704C233.071 181.385 233.394 181.177 233.749 181.11C234.388 180.99 234.993 181.352 235.156 182.22C235.318 183.083 234.93 183.693 234.193 183.831C233.849 183.896 233.537 183.83 233.304 183.648L233.557 184.991L233.12 185.073ZM233.154 182.845C233.243 183.32 233.677 183.527 234.12 183.443C234.6 183.353 234.833 182.908 234.722 182.318C234.615 181.745 234.243 181.419 233.746 181.512C233.342 181.588 232.988 181.966 233.095 182.534L233.154 182.845ZM237.15 183.255C236.415 183.403 235.821 183.019 235.647 182.153C235.472 181.287 235.87 180.702 236.605 180.554C237.34 180.405 237.939 180.789 238.114 181.655C238.288 182.521 237.885 183.107 237.15 183.255ZM236.082 182.065C236.203 182.664 236.56 182.972 237.072 182.868C237.584 182.765 237.799 182.342 237.678 181.743C237.557 181.144 237.195 180.837 236.683 180.94C236.171 181.044 235.961 181.466 236.082 182.065ZM239.033 182.813L238.476 180.228L240.67 179.755L241.227 182.34L240.793 182.434L240.322 180.251L238.997 180.536L239.467 182.72L239.033 182.813ZM242.279 183.211L241.45 179.582L241.883 179.483L241.967 179.851C242.087 179.528 242.402 179.307 242.754 179.227C243.387 179.082 244.006 179.42 244.203 180.281C244.398 181.137 244.034 181.762 243.302 181.929C242.961 182.007 242.647 181.953 242.408 181.78L242.712 183.112L242.279 183.211ZM242.226 180.983C242.334 181.455 242.776 181.644 243.215 181.544C243.691 181.435 243.907 180.981 243.773 180.396C243.643 179.827 243.259 179.516 242.766 179.629C242.365 179.721 242.027 180.111 242.155 180.675L242.226 180.983ZM245.158 181.44L244.521 178.873L244.936 178.77L245.435 180.781L246.268 178.439L246.731 178.324L247.369 180.891L246.954 180.994L246.455 178.988L245.622 181.324L245.158 181.44ZM249.697 180.294L249.449 179.331L248.873 179.48L248.497 180.604L247.997 180.733L248.425 179.566C247.999 179.584 247.712 179.383 247.607 178.974C247.465 178.425 247.772 178.059 248.337 177.914L249.467 177.622L250.127 180.183L249.697 180.294ZM248.027 178.848C248.098 179.123 248.321 179.232 248.666 179.143L249.354 178.965L249.134 178.11L248.445 178.287C248.106 178.375 247.957 178.574 248.027 178.848ZM251.598 179.776L250.987 177.627L250.051 177.894L249.939 177.498L252.237 176.844L252.349 177.24L251.414 177.506L252.025 179.654L251.598 179.776ZM253.497 179.232L252.754 176.694L253.164 176.574L253.746 178.563L254.481 176.188L254.94 176.054L255.683 178.592L255.272 178.712L254.692 176.729L253.955 179.098L253.497 179.232ZM257.968 177.849L257.655 176.906L257.091 177.093L256.792 178.24L256.302 178.402L256.65 177.21C256.226 177.257 255.926 177.075 255.793 176.675C255.614 176.137 255.896 175.751 256.45 175.567L257.557 175.199L258.39 177.71L257.968 177.849ZM256.204 176.521C256.294 176.789 256.524 176.883 256.861 176.771L257.536 176.547L257.258 175.708L256.583 175.932C256.251 176.043 256.115 176.252 256.204 176.521Z" fill="white"/>
<rect x="83.1348" y="170.542" width="77.5874" height="19.9228" rx="1.26998" fill="#222127"/>
<path d="M92.4172 185.122C90.1194 185.122 89.1431 183.658 89.1431 180.955C89.1431 178.312 90.1194 176.788 92.4172 176.788C94.727 176.788 95.6914 178.312 95.6914 180.955C95.6914 183.658 94.727 185.122 92.4172 185.122ZM90.167 180.955C90.167 183.027 90.8218 184.218 92.4172 184.218C94.0246 184.218 94.6675 183.027 94.6675 180.955C94.6675 178.872 94.0246 177.693 92.4172 177.693C90.8218 177.693 90.167 178.872 90.167 180.955ZM97.2026 185.003V183.884L100.012 181.872C101.191 181.027 102.001 180.408 102.001 179.265C102.001 178.419 101.417 177.693 100.227 177.693C99.0361 177.693 98.2622 178.419 98.0122 179.574L97.0716 179.396C97.3097 177.872 98.4646 176.788 100.239 176.788C102.001 176.788 103.025 177.812 103.025 179.265C103.025 180.789 101.989 181.574 100.596 182.551L98.4646 184.051H103.191V185.003H97.2026ZM104.644 185.003V183.694H105.918V185.003H104.644ZM110.462 185.122C108.165 185.122 107.188 183.658 107.188 180.955C107.188 178.312 108.165 176.788 110.462 176.788C112.772 176.788 113.737 178.312 113.737 180.955C113.737 183.658 112.772 185.122 110.462 185.122ZM108.212 180.955C108.212 183.027 108.867 184.218 110.462 184.218C112.07 184.218 112.713 183.027 112.713 180.955C112.713 178.872 112.07 177.693 110.462 177.693C108.867 177.693 108.212 178.872 108.212 180.955ZM118.308 185.122C115.629 185.122 115.141 183.277 115.141 181.134C115.141 177.955 116.403 176.788 118.367 176.788C119.963 176.788 120.939 177.514 121.272 178.812L120.308 179.015C120.153 178.396 119.522 177.693 118.367 177.693C117.129 177.693 116.105 178.431 116.105 180.789C116.557 180.181 117.438 179.848 118.427 179.848C119.951 179.848 121.367 180.574 121.367 182.479C121.367 184.075 120.165 185.122 118.308 185.122ZM116.224 182.479C116.224 183.575 117.105 184.23 118.284 184.23C119.534 184.23 120.344 183.622 120.344 182.479C120.344 181.336 119.534 180.729 118.284 180.729C117.034 180.729 116.224 181.336 116.224 182.479ZM122.84 185.003V183.694H124.114V185.003H122.84ZM125.7 185.003V183.884L128.51 181.872C129.689 181.027 130.499 180.408 130.499 179.265C130.499 178.419 129.915 177.693 128.725 177.693C127.534 177.693 126.76 178.419 126.51 179.574L125.569 179.396C125.808 177.872 126.962 176.788 128.736 176.788C130.499 176.788 131.522 177.812 131.522 179.265C131.522 180.789 130.487 181.574 129.094 182.551L126.962 184.051H131.689V185.003H125.7ZM136.333 185.122C134.035 185.122 133.058 183.658 133.058 180.955C133.058 178.312 134.035 176.788 136.333 176.788C138.642 176.788 139.607 178.312 139.607 180.955C139.607 183.658 138.642 185.122 136.333 185.122ZM134.082 180.955C134.082 183.027 134.737 184.218 136.333 184.218C137.94 184.218 138.583 183.027 138.583 180.955C138.583 178.872 137.94 177.693 136.333 177.693C134.737 177.693 134.082 178.872 134.082 180.955ZM141.118 185.003V183.884L143.928 181.872C145.106 181.027 145.916 180.408 145.916 179.265C145.916 178.419 145.333 177.693 144.142 177.693C142.951 177.693 142.178 178.419 141.927 179.574L140.987 179.396C141.225 177.872 142.38 176.788 144.154 176.788C145.916 176.788 146.94 177.812 146.94 179.265C146.94 180.789 145.904 181.574 144.511 182.551L142.38 184.051H147.107V185.003H141.118ZM151.619 185.122C148.94 185.122 148.452 183.277 148.452 181.134C148.452 177.955 149.714 176.788 151.679 176.788C153.274 176.788 154.25 177.514 154.584 178.812L153.619 179.015C153.464 178.396 152.833 177.693 151.679 177.693C150.44 177.693 149.416 178.431 149.416 180.789C149.869 180.181 150.75 179.848 151.738 179.848C153.262 179.848 154.679 180.574 154.679 182.479C154.679 184.075 153.476 185.122 151.619 185.122ZM149.535 182.479C149.535 183.575 150.417 184.23 151.595 184.23C152.845 184.23 153.655 183.622 153.655 182.479C153.655 181.336 152.845 180.729 151.595 180.729C150.345 180.729 149.535 181.336 149.535 182.479Z" fill="white"/>
<path d="M325.083 167.854C324.38 167.952 323.795 167.575 323.667 166.664C323.539 165.752 323.998 165.228 324.701 165.13C325.382 165.034 325.778 165.343 325.942 165.796L325.529 165.926C325.423 165.689 325.211 165.456 324.756 165.52C324.25 165.591 324.023 166.009 324.107 166.602C324.188 167.184 324.523 167.535 325.028 167.464C325.49 167.399 325.618 167.118 325.653 166.85L326.087 166.867C326.054 167.353 325.764 167.758 325.083 167.854ZM327.499 167.485L327.242 165.271L326.278 165.383L326.231 164.975L328.6 164.7L328.647 165.108L327.683 165.22L327.94 167.434L327.499 167.485ZM330.204 167.247C329.63 167.304 329.243 167.053 329.194 166.562C329.139 166.016 329.509 165.75 330.113 165.668C330.383 165.63 330.643 165.615 330.848 165.6L330.825 165.374C330.787 164.987 330.547 164.822 330.211 164.855C329.83 164.893 329.648 165.14 329.593 165.419L329.17 165.377C329.238 164.88 329.583 164.545 330.174 164.486C330.759 164.427 331.184 164.669 331.249 165.315L331.424 167.069L331.01 167.111L330.979 166.802C330.835 167.033 330.579 167.209 330.204 167.247ZM329.633 166.496C329.659 166.75 329.869 166.907 330.178 166.876C330.625 166.831 330.943 166.554 330.908 166.201L330.883 165.947C330.661 165.958 330.407 165.984 330.16 166.02C329.786 166.074 329.607 166.236 329.633 166.496ZM332.279 168.08L332.051 164.372L332.494 164.345L332.517 164.721C332.688 164.422 333.033 164.256 333.393 164.234C334.041 164.194 334.595 164.627 334.649 165.507C334.703 166.381 334.242 166.938 333.495 166.983C333.146 167.005 332.845 166.901 332.638 166.692L332.722 168.053L332.279 168.08ZM332.588 165.878C332.618 166.359 333.022 166.618 333.471 166.59C333.958 166.561 334.244 166.149 334.207 165.551C334.171 164.969 333.843 164.601 333.34 164.632C332.93 164.657 332.533 164.987 332.569 165.562L332.588 165.878ZM336.014 166.797L335.925 164.569L334.955 164.608L334.939 164.198L337.321 164.102L337.338 164.512L336.368 164.551L336.458 166.779L336.014 166.797ZM339.175 166.711L339.145 164.072L340.287 164.059C340.897 164.052 341.194 164.298 341.199 164.742C341.202 165.008 341.1 165.253 340.834 165.334C341.134 165.397 341.281 165.645 341.285 165.939C341.29 166.388 341.027 166.69 340.395 166.697L339.175 166.711ZM339.603 166.329L340.396 166.32C340.729 166.317 340.866 166.176 340.863 165.927C340.86 165.666 340.709 165.535 340.382 165.539L339.594 165.547L339.603 166.329ZM339.59 165.187L340.35 165.178C340.655 165.175 340.786 165.04 340.784 164.796C340.781 164.558 340.641 164.432 340.308 164.436L339.582 164.444L339.59 165.187ZM343.105 166.73L343.129 166.21L344.479 165.333C345.045 164.965 345.435 164.694 345.459 164.162C345.477 163.769 345.221 163.418 344.667 163.393C344.113 163.368 343.738 163.689 343.597 164.221L343.163 164.118C343.306 163.414 343.867 162.935 344.692 162.972C345.512 163.01 345.967 163.508 345.936 164.184C345.903 164.893 345.405 165.237 344.736 165.661L343.712 166.314L345.912 166.414L345.891 166.858L343.105 166.73ZM348.039 167.111C346.974 167.005 346.589 166.281 346.714 165.028C346.836 163.803 347.359 163.142 348.424 163.248C349.495 163.355 349.871 164.106 349.749 165.331C349.624 166.584 349.109 167.218 348.039 167.111ZM347.189 165.076C347.093 166.036 347.341 166.618 348.081 166.692C348.826 166.766 349.179 166.244 349.275 165.284C349.371 164.318 349.128 163.742 348.383 163.668C347.643 163.594 347.285 164.11 347.189 165.076ZM350.261 167.287L350.338 166.682L350.926 166.757L350.849 167.362L350.261 167.287ZM350.517 165.274L350.594 164.669L351.183 164.744L351.106 165.349L350.517 165.274ZM353.029 167.809C351.977 167.61 351.657 166.855 351.891 165.618C352.12 164.408 352.698 163.795 353.75 163.994C354.807 164.194 355.117 164.975 354.888 166.185C354.654 167.422 354.086 168.009 353.029 167.809ZM352.36 165.707C352.18 166.655 352.377 167.256 353.107 167.395C353.843 167.534 354.24 167.044 354.419 166.096C354.6 165.143 354.407 164.547 353.672 164.408C352.942 164.27 352.54 164.753 352.36 165.707ZM356.642 168.638C355.609 168.359 355.348 167.581 355.677 166.366C355.999 165.178 356.624 164.612 357.657 164.891C358.695 165.173 358.943 165.975 358.621 167.164C358.292 168.379 357.68 168.92 356.642 168.638ZM356.138 166.491C355.885 167.422 356.035 168.037 356.752 168.232C357.475 168.427 357.909 167.97 358.161 167.039C358.415 166.102 358.269 165.494 357.547 165.298C356.829 165.104 356.391 165.554 356.138 166.491Z" fill="white"/>
<rect x="367.624" y="167.552" width="101.873" height="19.8857" rx="1.26761" fill="#222127"/>
<path d="M372.156 183.588V181.116H372.75C373.142 180.795 373.439 180.165 373.487 179.476C373.522 178.965 373.534 178.228 373.546 176.338H377.563V181.116H378.478V183.588H377.563V181.995H373.071V183.588H372.156ZM373.831 181.116H376.612V177.218H374.437C374.437 178.311 374.425 179.143 374.378 179.606C374.318 180.272 374.093 180.759 373.831 181.116ZM381.885 182.114C380.28 182.114 379.199 181.056 379.199 179.167C379.199 177.277 380.28 176.22 381.885 176.22C383.489 176.22 384.582 177.277 384.582 179.167C384.582 181.056 383.489 182.114 381.885 182.114ZM380.15 179.167C380.15 180.474 380.768 181.27 381.885 181.27C383.002 181.27 383.632 180.474 383.632 179.167C383.632 177.86 383.002 177.063 381.885 177.063C380.768 177.063 380.15 177.86 380.15 179.167ZM388.325 182.114C386.804 182.114 385.675 181.139 385.675 179.167C385.675 177.194 386.804 176.22 388.325 176.22C389.798 176.22 390.547 176.992 390.761 178.002L389.846 178.157C389.692 177.622 389.311 177.063 388.325 177.063C387.232 177.063 386.626 177.883 386.626 179.167C386.626 180.426 387.232 181.27 388.325 181.27C389.323 181.27 389.68 180.712 389.834 180.153L390.749 180.319C390.535 181.342 389.798 182.114 388.325 182.114ZM393.563 181.995V177.218H391.483V176.338H396.593V177.218H394.514V181.995H393.563ZM397.692 184.301V183.421H398.049C398.583 183.421 398.976 183.219 399.237 182.589L399.487 181.971L397.086 176.338H398.132L399.986 180.819L401.649 176.338H402.636L400.057 182.863C399.629 183.944 399.106 184.301 398.239 184.301H397.692ZM403.694 181.995V176.338H408.495V181.995H407.545V177.218H404.645V181.995H403.694ZM414.872 182.114C413.565 182.114 412.649 181.544 412.424 180.379L413.339 180.201C413.481 180.819 413.957 181.306 414.872 181.306C415.787 181.306 416.227 180.902 416.227 180.331C416.227 179.797 415.882 179.511 415.086 179.511H414.087V178.739H415.086C415.811 178.739 416.108 178.43 416.108 177.919C416.108 177.372 415.739 177.028 414.931 177.028C414.04 177.028 413.565 177.491 413.374 178.121L412.459 177.943C412.721 176.838 413.636 176.22 414.931 176.22C416.227 176.22 417.035 176.79 417.035 177.824C417.035 178.418 416.749 178.905 416.203 179.095C416.809 179.262 417.177 179.713 417.177 180.403C417.177 181.472 416.31 182.114 414.872 182.114ZM420.318 182.114C419.083 182.114 418.31 181.496 418.31 180.438C418.31 179.262 419.154 178.775 420.461 178.727C421.043 178.703 421.602 178.727 422.042 178.739V178.252C422.042 177.42 421.566 177.016 420.841 177.016C420.021 177.016 419.582 177.503 419.403 178.085L418.512 177.907C418.762 176.861 419.57 176.22 420.841 176.22C422.101 176.22 422.957 176.826 422.957 178.216V181.995H422.065V181.33C421.709 181.793 421.127 182.114 420.318 182.114ZM419.261 180.391C419.261 180.937 419.677 181.318 420.342 181.318C421.305 181.318 422.042 180.795 422.042 180.034V179.488C421.566 179.464 421.02 179.464 420.485 179.488C419.677 179.523 419.261 179.832 419.261 180.391ZM427.207 181.995V176.338H428.157V178.656H429.12L430.808 176.338H431.913L429.892 179.036L432.008 181.995H430.867L429.108 179.464H428.157V181.995H427.207ZM433.007 184.301V183.421H433.364C433.898 183.421 434.291 183.219 434.552 182.589L434.802 181.971L432.401 176.338H433.447L435.301 180.819L436.964 176.338H437.951L435.372 182.863C434.944 183.944 434.421 184.301 433.554 184.301H433.007ZM438.018 181.995V181.116H438.362C438.933 181.116 439.159 180.783 439.194 179.951C439.23 179.06 439.254 177.253 439.266 176.338H443.27V181.995H442.32V177.218H440.145C440.133 178.145 440.109 179.357 440.086 180.034C440.026 181.544 439.551 181.995 438.457 181.995H438.018ZM445.056 181.995V176.338H445.971V180.771L448.906 176.338H449.928V181.995H449.013V177.574L446.078 181.995H445.056ZM454.011 182.114C452.49 182.114 451.361 181.139 451.361 179.167C451.361 177.194 452.49 176.22 454.011 176.22C455.485 176.22 456.233 176.992 456.447 178.002L455.532 178.157C455.378 177.622 454.997 177.063 454.011 177.063C452.918 177.063 452.312 177.883 452.312 179.167C452.312 180.426 452.918 181.27 454.011 181.27C455.009 181.27 455.366 180.712 455.52 180.153L456.435 180.319C456.221 181.342 455.485 182.114 454.011 182.114ZM457.764 181.995V176.338H458.714V178.287H460.188C461.507 178.287 462.184 178.929 462.184 180.082C462.184 181.282 461.554 181.995 460.164 181.995H457.764ZM458.714 181.139H460.176C461.043 181.139 461.281 180.712 461.281 180.094C461.281 179.464 461.043 179.143 460.188 179.143H458.714V181.139ZM463.028 181.995V176.338H463.979V181.995H463.028Z" fill="white"/>
<rect x="548.272" y="157.597" width="69.8733" height="19.8857" rx="1.26761" fill="#222127"/>
<path d="M553.6 174.345V166.383H554.55V167.191C554.955 166.573 555.715 166.264 556.488 166.264C557.878 166.264 559.007 167.262 559.007 169.152C559.007 171.029 557.949 172.158 556.345 172.158C555.596 172.158 554.966 171.897 554.55 171.422V174.345H553.6ZM554.55 169.675C554.55 170.709 555.382 171.315 556.345 171.315C557.391 171.315 558.056 170.471 558.056 169.187C558.056 167.94 557.403 167.108 556.321 167.108C555.442 167.108 554.55 167.761 554.55 168.997V169.675ZM562.788 172.158C561.184 172.158 560.102 171.101 560.102 169.211C560.102 167.322 561.184 166.264 562.788 166.264C564.392 166.264 565.486 167.322 565.486 169.211C565.486 171.101 564.392 172.158 562.788 172.158ZM561.053 169.211C561.053 170.518 561.671 171.315 562.788 171.315C563.905 171.315 564.535 170.518 564.535 169.211C564.535 167.904 563.905 167.108 562.788 167.108C561.671 167.108 561.053 167.904 561.053 169.211ZM569.204 172.158C567.648 172.158 566.578 171.077 566.578 169.199C566.578 167.357 567.671 166.264 569.288 166.264C570.001 166.264 570.654 166.549 571.023 167.001V163.959H571.973V172.04H571.058V171.303C570.702 171.838 570.048 172.158 569.204 172.158ZM567.529 169.199C567.529 170.411 568.159 171.315 569.288 171.315C570.428 171.315 571.023 170.542 571.023 169.425V168.926C571.023 167.714 570.286 167.108 569.323 167.108C568.242 167.108 567.529 167.916 567.529 169.199ZM575.279 172.04L573.033 166.383H574.043L575.838 171.041L577.644 166.383H578.619L576.325 172.04H575.279ZM581.272 172.158C580.036 172.158 579.264 171.54 579.264 170.483C579.264 169.306 580.108 168.819 581.415 168.771C581.997 168.748 582.556 168.771 582.995 168.783V168.296C582.995 167.464 582.52 167.06 581.795 167.06C580.975 167.06 580.535 167.547 580.357 168.13L579.466 167.952C579.715 166.906 580.523 166.264 581.795 166.264C583.055 166.264 583.91 166.87 583.91 168.26V172.04H583.019V171.374C582.663 171.838 582.08 172.158 581.272 172.158ZM580.215 170.435C580.215 170.982 580.63 171.362 581.296 171.362C582.259 171.362 582.995 170.839 582.995 170.079V169.532C582.52 169.508 581.973 169.508 581.439 169.532C580.63 169.568 580.215 169.877 580.215 170.435ZM585.607 172.04V163.959H586.558V172.04H585.607ZM588.251 172.04V170.732H589.523V172.04H588.251ZM593.39 172.158C591.869 172.158 590.74 171.184 590.74 169.211C590.74 167.238 591.869 166.264 593.39 166.264C594.864 166.264 595.613 167.036 595.827 168.047L594.912 168.201C594.757 167.666 594.377 167.108 593.39 167.108C592.297 167.108 591.691 167.928 591.691 169.211C591.691 170.471 592.297 171.315 593.39 171.315C594.389 171.315 594.745 170.756 594.9 170.198L595.815 170.364C595.601 171.386 594.864 172.158 593.39 172.158ZM599.484 172.158C597.88 172.158 596.798 171.101 596.798 169.211C596.798 167.322 597.88 166.264 599.484 166.264C601.088 166.264 602.182 167.322 602.182 169.211C602.182 171.101 601.088 172.158 599.484 172.158ZM597.749 169.211C597.749 170.518 598.367 171.315 599.484 171.315C600.601 171.315 601.231 170.518 601.231 169.211C601.231 167.904 600.601 167.108 599.484 167.108C598.367 167.108 597.749 167.904 597.749 169.211ZM603.619 172.04V166.383H604.546V167.108C604.914 166.561 605.615 166.264 606.281 166.264C607.231 166.264 607.885 166.68 608.17 167.298C608.527 166.621 609.335 166.264 610.107 166.264C611.379 166.264 612.199 166.965 612.199 168.296V172.04H611.248V168.439C611.248 167.666 610.868 167.12 609.929 167.12C609.062 167.12 608.384 167.714 608.384 168.653V172.04H607.433V168.439C607.433 167.666 607.041 167.12 606.102 167.12C605.235 167.12 604.569 167.714 604.569 168.653V172.04H603.619Z" fill="white"/>
<circle cx="160.701" cy="179.263" r="5.27009" fill="#535353"/>
<circle cx="160.802" cy="179.03" r="2.83517" fill="#54F614"/>
<circle cx="367.627" cy="167.552" r="5.27009" fill="#535353"/>
<circle cx="367.606" cy="167.532" r="2.83517" fill="#54F614"/>
<circle cx="548.272" cy="170.845" r="3.51339" fill="#535353"/>
<circle cx="548.341" cy="170.69" r="1.89012" fill="#54F614"/>
<circle cx="469.494" cy="181.509" r="3.58659" fill="#535353"/>
<circle cx="469.561" cy="181.351" r="1.92949" fill="#54F614"/>
<path d="M502.135 185.774L502.161 183.135L504.402 183.157L504.375 185.797L503.932 185.792L503.954 183.563L502.601 183.549L502.578 185.779L502.135 185.774ZM506.253 185.868C505.56 185.863 505.048 185.404 505.056 184.483C505.063 183.562 505.622 183.112 506.315 183.118C507.008 183.124 507.47 183.588 507.464 184.364C507.463 184.459 507.462 184.547 507.456 184.597L505.482 184.581C505.499 185.174 505.79 185.482 506.256 185.486C506.678 185.489 506.907 185.253 506.998 184.998L507.391 185.085C507.276 185.533 506.88 185.873 506.253 185.868ZM505.501 184.232L507.043 184.244C507.035 183.823 506.777 183.499 506.312 183.495C505.879 183.492 505.578 183.739 505.501 184.232ZM508.117 186.888L508.012 183.174L508.456 183.162L508.466 183.539C508.647 183.245 508.997 183.091 509.358 183.081C510.006 183.063 510.546 183.513 510.571 184.395C510.595 185.271 510.117 185.811 509.368 185.832C509.019 185.842 508.722 185.728 508.522 185.512L508.56 186.876L508.117 186.888ZM508.499 184.697C508.512 185.18 508.908 185.451 509.357 185.439C509.845 185.425 510.145 185.023 510.128 184.424C510.111 183.842 509.796 183.462 509.291 183.477C508.881 183.488 508.474 183.805 508.49 184.381L508.499 184.697ZM512.33 185.713C511.637 185.75 511.098 185.323 511.05 184.403C511.002 183.484 511.532 183.001 512.224 182.964C512.916 182.928 513.406 183.363 513.446 184.139C513.451 184.233 513.456 184.322 513.453 184.372L511.482 184.475C511.535 185.067 511.844 185.356 512.309 185.331C512.73 185.309 512.945 185.059 513.02 184.8L513.418 184.862C513.331 185.317 512.955 185.681 512.33 185.713ZM511.48 184.125L513.019 184.045C512.986 183.624 512.709 183.317 512.244 183.341C511.812 183.364 511.526 183.629 511.48 184.125ZM515.777 185.418L514.962 184.421L514.318 185.536L513.809 185.577L514.685 184.16L513.652 182.941L514.172 182.899L514.93 183.817L515.521 182.79L516.029 182.749L515.202 184.085L516.297 185.376L515.777 185.418ZM517.801 185.269C517.056 185.35 516.502 184.913 516.407 184.036C516.312 183.16 516.761 182.615 517.505 182.534C518.249 182.454 518.81 182.89 518.904 183.766C518.999 184.643 518.545 185.189 517.801 185.269ZM516.848 183.989C516.913 184.595 517.24 184.934 517.758 184.878C518.277 184.822 518.529 184.421 518.463 183.814C518.398 183.208 518.066 182.87 517.547 182.926C517.029 182.982 516.782 183.382 516.848 183.989ZM519.367 185.789L519.205 184.647L519.479 184.608C519.64 184.434 519.736 184.124 519.712 183.802C519.695 183.564 519.652 183.223 519.534 182.349L521.39 182.086L521.703 184.293L522.126 184.233L522.288 185.375L521.865 185.435L521.761 184.699L519.685 184.994L519.79 185.729L519.367 185.789ZM519.979 184.538L521.264 184.355L521.008 182.554L520.003 182.697C520.075 183.202 520.124 183.587 520.133 183.804C520.149 184.116 520.076 184.356 519.979 184.538ZM522.673 184.553L522.201 181.956L522.621 181.88L522.991 183.915L523.968 181.634L524.438 181.549L524.91 184.146L524.49 184.223L524.121 182.193L523.142 184.468L522.673 184.553ZM526.885 183.72L526.242 181.159L526.672 181.051L526.936 182.1L528.296 181.759L528.033 180.71L528.464 180.602L529.106 183.162L528.676 183.27L528.396 182.157L527.035 182.498L527.315 183.612L526.885 183.72ZM530.688 182.756C530.137 182.926 529.708 182.756 529.562 182.285C529.4 181.76 529.71 181.427 530.286 181.226C530.543 181.135 530.795 181.069 530.993 181.014L530.926 180.796C530.811 180.425 530.544 180.311 530.22 180.41C529.855 180.523 529.726 180.801 529.726 181.085L529.304 181.128C529.272 180.627 529.544 180.23 530.111 180.055C530.673 179.882 531.138 180.035 531.329 180.655L531.848 182.34L531.451 182.463L531.359 182.166C531.264 182.421 531.049 182.645 530.688 182.756ZM529.98 182.133C530.055 182.377 530.293 182.489 530.589 182.397C531.019 182.265 531.275 181.931 531.171 181.591L531.096 181.348C530.88 181.402 530.637 181.478 530.401 181.562C530.046 181.689 529.903 181.884 529.98 182.133ZM534.729 181.311C534.073 181.581 533.412 181.361 533.063 180.509C532.713 179.658 533.027 179.037 533.684 178.767C534.32 178.506 534.78 178.706 535.051 179.104L534.684 179.333C534.522 179.13 534.259 178.956 533.833 179.131C533.361 179.325 533.245 179.787 533.473 180.341C533.696 180.884 534.108 181.141 534.58 180.947C535.01 180.77 535.065 180.466 535.033 180.197L535.457 180.107C535.546 180.586 535.365 181.05 534.729 181.311ZM537.05 180.254C536.536 180.515 536.084 180.42 535.861 179.98C535.613 179.49 535.862 179.109 536.396 178.814C536.633 178.681 536.871 178.573 537.057 178.486L536.954 178.283C536.779 177.936 536.496 177.868 536.194 178.021C535.852 178.194 535.772 178.49 535.82 178.77L535.412 178.883C535.295 178.395 535.497 177.958 536.026 177.69C536.55 177.424 537.034 177.496 537.327 178.075L538.124 179.649L537.753 179.836L537.613 179.559C537.562 179.827 537.387 180.084 537.05 180.254ZM536.247 179.76C536.362 179.987 536.615 180.058 536.893 179.918C537.293 179.715 537.49 179.342 537.33 179.025L537.214 178.797C537.011 178.888 536.784 179.003 536.566 179.126C536.237 179.311 536.129 179.527 536.247 179.76ZM538.809 179.257L537.394 177.028L537.754 176.799L538.863 178.546L538.911 176.065L539.313 175.81L540.728 178.038L540.368 178.267L539.262 176.525L539.211 179.001L538.809 179.257ZM537.134 175.998L537.447 175.799C537.602 175.99 537.782 176.046 538.016 175.898C538.245 175.752 538.266 175.568 538.159 175.347L538.473 175.148C538.688 175.517 538.642 175.881 538.188 176.169C537.73 176.46 537.372 176.352 537.134 175.998ZM541.932 177.114L540.516 175.391L539.767 176.007L539.506 175.69L541.348 174.176L541.609 174.493L540.859 175.11L542.275 176.832L541.932 177.114Z" fill="white"/>
<rect opacity="0.8" x="13.3574" y="147.203" width="60.24" height="55.9215" fill="#D9D9D9"/>
</g>
<path opacity="0.42" d="M19.1133 92.3662L32.1169 97.0817L21.2352 104.079L32.3353 108.62L22.7518 115.416L33.5346 119.928L23.6047 127.013L35.0512 131.265L24.1404 138.58" stroke="black" stroke-width="0.637184"/>
<path opacity="0.42" d="M21.4316 151.914L33.7971 158.113L22.1741 163.794L32.6694 169.598L22.3591 175.231L32.5427 180.968L21.8548 186.848L32.7277 192.405L21.0388 198.398" stroke="black" stroke-width="0.637184"/>
<path opacity="0.42" d="M35.0918 90.7588L48.0954 95.4743L37.2137 102.472L48.3138 107.012L38.7303 113.809L49.5131 118.32L39.5832 125.405L51.0297 129.658L40.1189 136.972" stroke="black" stroke-width="0.637184"/>
<path opacity="0.42" d="M36.9814 151.914L49.3469 158.113L37.7239 163.794L48.2192 169.598L37.9089 175.231L48.0925 180.968L37.4046 186.848L48.2776 192.405L36.5886 198.398" stroke="black" stroke-width="0.637184"/>
<path opacity="0.42" d="M51.0674 89.2671L64.071 93.9826L53.1893 100.98L64.2894 105.52L54.7059 112.317L65.4887 116.829L55.5588 123.914L67.0053 128.166L56.0945 135.481" stroke="black" stroke-width="0.637184"/>
<path opacity="0.42" d="M52.1064 151.914L64.4719 158.113L52.8489 163.794L63.3442 169.598L53.0339 175.231L63.2175 180.968L52.5296 186.848L63.4026 192.405L51.7136 198.398" stroke="black" stroke-width="0.637184"/>
<defs>
<filter id="filter0_d_2296_729" x="2.50121" y="39.0601" width="649.464" height="123.88" filterUnits="userSpaceOnUse" color-interpolation-filters="sRGB">
<feFlood flood-opacity="0" result="BackgroundImageFix"/>
<feColorMatrix in="SourceAlpha" type="matrix" values="0 0 0 0 0 0 0 0 0 0 0 0 0 0 0 0 0 0 127 0" result="hardAlpha"/>
<feOffset dx="1.80929" dy="8.36798"/>
<feGaussianBlur stdDeviation="5.65404"/>
<feComposite in2="hardAlpha" operator="out"/>
<feColorMatrix type="matrix" values="0 0 0 0 0 0 0 0 0 0 0 0 0 0 0 0 0 0 0.5 0"/>
<feBlend mode="normal" in2="BackgroundImageFix" result="effect1_dropShadow_2296_729"/>
<feBlend mode="normal" in="SourceGraphic" in2="effect1_dropShadow_2296_729" result="shape"/>
</filter>
<filter id="filter1_d_2296_729" x="2.04934" y="147.203" width="647.049" height="79.6684" filterUnits="userSpaceOnUse" color-interpolation-filters="sRGB">
<feFlood flood-opacity="0" result="BackgroundImageFix"/>
<feColorMatrix in="SourceAlpha" type="matrix" values="0 0 0 0 0 0 0 0 0 0 0 0 0 0 0 0 0 0 127 0" result="hardAlpha"/>
<feOffset dy="12.4389"/>
<feGaussianBlur stdDeviation="5.65404"/>
<feComposite in2="hardAlpha" operator="out"/>
<feColorMatrix type="matrix" values="0 0 0 0 0 0 0 0 0 0 0 0 0 0 0 0 0 0 0.5 0"/>
<feBlend mode="normal" in2="BackgroundImageFix" result="effect1_dropShadow_2296_729"/>
<feBlend mode="normal" in="SourceGraphic" in2="effect1_dropShadow_2296_729" result="shape"/>
</filter>
<clipPath id="clip0_2296_729">
<rect width="564.192" height="55.9215" fill="white" transform="translate(72.0811 83.1023) rotate(-4.17777)"/>
</clipPath>
</defs>
</svg>
