<svg width="125" height="29" viewBox="0 0 125 29" fill="none" xmlns="http://www.w3.org/2000/svg">
<rect width="125" height="28.2534" rx="14.1267" fill="white"/>
<path d="M24.1926 9.04928V20.1377H22.8498V10.2404H17.2623V20.1377H15.9196V9.04928H24.1926ZM36.2569 14.5935C36.2569 15.763 36.0458 16.7736 35.6234 17.6255C35.2011 18.4773 34.6218 19.1343 33.8855 19.5963C33.1491 20.0583 32.3081 20.2893 31.3624 20.2893C30.4167 20.2893 29.5757 20.0583 28.8394 19.5963C28.103 19.1343 27.5237 18.4773 27.1014 17.6255C26.6791 16.7736 26.4679 15.763 26.4679 14.5935C26.4679 13.424 26.6791 12.4133 27.1014 11.5615C27.5237 10.7097 28.103 10.0527 28.8394 9.5907C29.5757 9.12869 30.4167 8.89768 31.3624 8.89768C32.3081 8.89768 33.1491 9.12869 33.8855 9.5907C34.6218 10.0527 35.2011 10.7097 35.6234 11.5615C36.0458 12.4133 36.2569 13.424 36.2569 14.5935ZM34.9575 14.5935C34.9575 13.6334 34.7969 12.823 34.4756 12.1625C34.158 11.5019 33.7266 11.002 33.1816 10.6627C32.6402 10.3234 32.0338 10.1538 31.3624 10.1538C30.691 10.1538 30.0828 10.3234 29.5378 10.6627C28.9964 11.002 28.565 11.5019 28.2438 12.1625C27.9262 12.823 27.7673 13.6334 27.7673 14.5935C27.7673 15.5536 27.9262 16.364 28.2438 17.0245C28.565 17.685 28.9964 18.1849 29.5378 18.5242C30.0828 18.8635 30.691 19.0332 31.3624 19.0332C32.0338 19.0332 32.6402 18.8635 33.1816 18.5242C33.7266 18.1849 34.158 17.685 34.4756 17.0245C34.7969 16.364 34.9575 15.5536 34.9575 14.5935ZM37.5617 22.8232V18.9466H38.2764C38.5219 18.7228 38.7529 18.4069 38.9695 17.9991C39.1896 17.5876 39.3755 17.0389 39.5271 16.3531C39.6823 15.6637 39.7852 14.7884 39.8357 13.7272L40.074 9.04928H46.6577V18.9466H47.9355V22.8015H46.6577V20.1377H38.8395V22.8232H37.5617ZM39.8791 18.9466H45.3799V10.2404H41.2868L41.1135 13.7272C41.0702 14.5357 40.9944 15.2685 40.8861 15.9254C40.7778 16.5787 40.6389 17.158 40.4692 17.6634C40.2996 18.1651 40.1028 18.5928 39.8791 18.9466ZM49.9645 20.1377V9.04928H53.7112C54.581 9.04928 55.2921 9.20629 55.8444 9.52032C56.4002 9.83074 56.8117 10.2512 57.0788 10.7818C57.3459 11.3124 57.4795 11.9044 57.4795 12.5577C57.4795 13.211 57.3459 13.8048 57.0788 14.339C56.8153 14.8732 56.4075 15.2991 55.8552 15.6168C55.3029 15.9308 54.5955 16.0878 53.7328 16.0878H51.0473V14.8967H53.6895C54.2851 14.8967 54.7633 14.7938 55.1243 14.5881C55.4852 14.3823 55.7469 14.1044 55.9093 13.7543C56.0754 13.4005 56.1584 13.0017 56.1584 12.5577C56.1584 12.1138 56.0754 11.7167 55.9093 11.3666C55.7469 11.0165 55.4834 10.7421 55.1189 10.5436C54.7543 10.3415 54.2706 10.2404 53.6678 10.2404H51.3072V20.1377H49.9645ZM68.9983 14.5935C68.9983 15.763 68.7872 16.7736 68.3649 17.6255C67.9426 18.4773 67.3632 19.1343 66.6269 19.5963C65.8905 20.0583 65.0495 20.2893 64.1038 20.2893C63.1581 20.2893 62.3171 20.0583 61.5808 19.5963C60.8444 19.1343 60.2651 18.4773 59.8428 17.6255C59.4205 16.7736 59.2093 15.763 59.2093 14.5935C59.2093 13.424 59.4205 12.4133 59.8428 11.5615C60.2651 10.7097 60.8444 10.0527 61.5808 9.5907C62.3171 9.12869 63.1581 8.89768 64.1038 8.89768C65.0495 8.89768 65.8905 9.12869 66.6269 9.5907C67.3632 10.0527 67.9426 10.7097 68.3649 11.5615C68.7872 12.4133 68.9983 13.424 68.9983 14.5935ZM67.6989 14.5935C67.6989 13.6334 67.5383 12.823 67.217 12.1625C66.8994 11.5019 66.4681 11.002 65.923 10.6627C65.3816 10.3234 64.7752 10.1538 64.1038 10.1538C63.4325 10.1538 62.8243 10.3234 62.2792 10.6627C61.7378 11.002 61.3065 11.5019 60.9852 12.1625C60.6676 12.823 60.5088 13.6334 60.5088 14.5935C60.5088 15.5536 60.6676 16.364 60.9852 17.0245C61.3065 17.685 61.7378 18.1849 62.2792 18.5242C62.8243 18.8635 63.4325 19.0332 64.1038 19.0332C64.7752 19.0332 65.3816 18.8635 65.923 18.5242C66.4681 18.1849 66.8994 17.685 67.217 17.0245C67.5383 16.364 67.6989 15.5536 67.6989 14.5935ZM71.2561 20.1377V9.04928H77.9481V10.2404H72.5988V13.7055H75.4142C76.2083 13.7055 76.8779 13.8355 77.4229 14.0954C77.9716 14.3553 78.3867 14.7216 78.6682 15.1945C78.9534 15.6673 79.0959 16.225 79.0959 16.8675C79.0959 17.51 78.9534 18.0767 78.6682 18.5676C78.3867 19.0585 77.9716 19.4429 77.4229 19.7208C76.8779 19.9987 76.2083 20.1377 75.4142 20.1377H71.2561ZM72.5988 18.9682H75.4142C75.9196 18.9682 76.3473 18.8671 76.6974 18.665C77.0512 18.4593 77.3183 18.1958 77.4987 17.8745C77.6828 17.5497 77.7749 17.2068 77.7749 16.8458C77.7749 16.3152 77.5709 15.8586 77.163 15.476C76.7552 15.0898 76.1722 14.8967 75.4142 14.8967H72.5988V18.9682ZM81.3063 20.1377V9.04928H82.6491V13.9871H88.5614V9.04928H89.9042V20.1377H88.5614V15.1782H82.6491V20.1377H81.3063ZM92.5924 20.1377V9.04928H99.2844V10.2404H93.9351V13.9871H98.9379V15.1782H93.9351V18.9466H99.371V20.1377H92.5924ZM101.705 20.1377V9.04928H108.397V10.2404H103.047V13.9871H108.05V15.1782H103.047V18.9466H108.483V20.1377H101.705Z" fill="black"/>
</svg>
